<?xml version="1.0" standalone="no"?>
<!DOCTYPE svg PUBLIC "-//W3C//DTD SVG 1.1//EN" "http://www.w3.org/Graphics/SVG/1.1/DTD/svg11.dtd" >
<svg>
<metadata>
Created by FontForge 20110222 at Mon Mar  7 13:06:48 2011
 By www-data
Copyright (c) 1999, 2006 Nick Curtis. All Rights Reserved. Distributed under non-exclusive license by 1001 Free Fonts.
</metadata>
<defs>
<font id="Chi-TownNF" horiz-adv-x="539" >
  <font-face 
    font-family="ChiTown NF"
    font-weight="400"
    font-stretch="normal"
    units-per-em="1000"
    panose-1="2 1 7 3 2 3 3 2 6 4"
    ascent="837"
    descent="-163"
    x-height="725"
    cap-height="725"
    bbox="-37 -236 1271 950"
    underline-thickness="50"
    underline-position="-55"
    unicode-range="U+0020-2122"
  />
    <missing-glyph />
    <glyph glyph-name="exclam" unicode="!" horiz-adv-x="205" 
d="M181 68q0 -32 -22.5 -54.5t-54.5 -22.5t-55 22.5t-23 54.5t23 54.5t55 22.5t54.5 -22.5t22.5 -54.5zM165 180h-141v550h141v-550z" />
    <glyph glyph-name="quotedbl" unicode="&#x22;" horiz-adv-x="360" 
d="M90 525l-66 28l62 211l110 -46zM230 525l-66 28l62 211l110 -46z" />
    <glyph glyph-name="numbersign" unicode="#" horiz-adv-x="801" 
d="M733 415h-122l-42 -122h125l-43 -115h-125l-64 -179h-124l64 179h-128l-64 -179h-124l64 179h-126l43 115h124l41 122h-125l42 116h126l63 179h125l-63 -179h127l63 179h125l-63 -179h125zM355 415l-43 -122h133l44 122h-134z" />
    <glyph glyph-name="dollar" unicode="$" horiz-adv-x="374" 
d="M350 241q0 -29 -10.5 -50t-28 -37t-39.5 -26.5t-46 -18.5v-113h-71v94l-110 -22v144l144 35l-131 141q-17 18 -25.5 37.5t-8.5 38.5q0 22 11 43t29.5 39t42 32t48.5 22v130h71v-114l113 24v-145l-153 -36q5 -6 12 -14t19 -20.5t30 -31.5t46 -48q15 -16 26 -28t17.5 -24
t10 -24t3.5 -28z" />
    <glyph glyph-name="percent" unicode="%" horiz-adv-x="795" 
d="M347 512q0 -32 -8 -68.5t-27 -68t-50 -52.5t-76 -21q-43 0 -74 19.5t-50.5 50t-28.5 68t-9 72.5q0 46 12 85t33.5 67t51 44t65.5 16t65.5 -16t51 -44t33 -67t11.5 -85zM236 512q0 51 -15.5 75.5t-33.5 24.5q-19 0 -35 -24.5t-16 -75.5q0 -17 2.5 -34.5t8.5 -32t15.5 -24
t23.5 -9.5q13 0 22.5 9t15.5 23.5t9 32.5t3 35zM771 213q0 -32 -8 -68.5t-27 -68t-50 -52.5t-76 -21q-43 0 -74 19.5t-50.5 50t-28.5 68t-9 72.5q0 46 12 85t33.5 67t51 44t65.5 16t65.5 -16t51 -44t33 -67t11.5 -85zM660 213q0 51 -15.5 75.5t-33.5 24.5q-19 0 -35 -24.5
t-16 -75.5q0 -17 2.5 -34.5t8.5 -32t15.5 -24t23.5 -9.5q13 0 22.5 9t15.5 23.5t9 32.5t3 35zM322 0h-110l257 724h111z" />
    <glyph glyph-name="ampersand" unicode="&#x26;" horiz-adv-x="819" 
d="M651 0q-5 45 -25.5 82t-51.5 65q-18 -36 -44.5 -66t-60 -51t-73 -33t-82.5 -12q-60 0 -113 23t-92 62t-62 91.5t-23 112.5q0 48 14.5 91t40.5 79q-6 25 -6 52q0 49 19 92t51 75t75 50.5t91 18.5q47 0 89 -18t74.5 -49.5t51.5 -73t20 -88.5h-142q-3 36 -29.5 61t-63.5 25
q-20 0 -37 -7.5t-29.5 -20t-20 -29.5t-7.5 -36q0 -27 14 -49t36 -34q-43 -15 -71 -53t-28 -86q0 -31 11.5 -57.5t32 -46.5t47.5 -31.5t57 -11.5q42 0 76.5 22t53.5 56q-7 1 -13.5 1.5t-13.5 0.5q-37 0 -71.5 -11.5t-63.5 -31.5l-83 116q46 32 101.5 50.5t116.5 18.5
q73 0 139 -27.5t117 -74.5t83.5 -111t38.5 -136h-144z" />
    <glyph glyph-name="quotesingle" unicode="'" horiz-adv-x="220" 
d="M90 525l-66 28l62 211l110 -46z" />
    <glyph glyph-name="parenleft" unicode="(" horiz-adv-x="370" 
d="M346 -105q-79 0 -139 36.5t-100.5 95.5t-61.5 135t-21 154t21 154t61.5 135.5t101 96t138.5 36.5v-143q-49 0 -83 -25t-55.5 -65t-31 -90t-9.5 -99q0 -50 9.5 -99.5t30.5 -90t55 -65.5t84 -25v-141z" />
    <glyph glyph-name="parenright" unicode=")" horiz-adv-x="370" 
d="M24 36q49 0 83.5 25t55.5 65.5t30.5 90t9.5 99.5q0 49 -9.5 99t-31 90t-55.5 65t-83 25v143q78 0 138.5 -36.5t101 -96t61.5 -135.5t21 -154t-21 -154t-61.5 -135t-100.5 -95.5t-139 -36.5v141z" />
    <glyph glyph-name="asterisk" unicode="*" horiz-adv-x="479" 
d="M455 563q0 -30 -20 -50t-49 -20q-19 0 -33 6.5t-32 6.5q-17 0 -17 -12q0 -11 39 -25q59 -21 59 -69q0 -15 -6.5 -28.5t-17.5 -24t-25 -16.5t-29 -6q-28 0 -48.5 20.5t-20.5 48.5q0 8 1 11v7q0 38 -17 38t-17 -39v-14q0 -31 -19.5 -51.5t-49.5 -20.5q-15 0 -29 6
t-24.5 16.5t-17 23.5t-6.5 28q0 50 58 69q17 5 28 12t11 15q0 12 -15 12q-17 0 -29.5 -7t-35.5 -7q-29 0 -49 19.5t-20 49.5q0 33 20 55.5t51 22.5q18 0 32.5 -10.5t26 -22.5t21 -22.5t17.5 -10.5q11 0 11 10q0 11 -6 21t-13.5 20t-13.5 21.5t-6 26.5q0 29 20.5 49t54.5 20
t54.5 -20t20.5 -49q0 -15 -6 -27.5t-13.5 -23t-13.5 -19.5t-6 -17q0 -12 14 -12q4 0 12.5 10.5t20.5 23t27 23t34 10.5q30 0 51 -23t21 -55z" />
    <glyph glyph-name="plus" unicode="+" horiz-adv-x="600" 
d="M352 248v-232h-104v232h-224v100h224v231h104v-231h224v-100h-224z" />
    <glyph glyph-name="comma" unicode="," horiz-adv-x="206" 
d="M70 -91l-46 37l35 50q-16 11 -25 28.5t-9 36.5q0 31 22 52.5t49 23.5h7q21 0 35.5 -8.5t24.5 -20t14.5 -24t4.5 -21.5q0 -20 -9 -36.5t-15 -22.5z" />
    <glyph glyph-name="hyphen" unicode="-" horiz-adv-x="328" 
d="M24 294v98h280v-98h-280z" />
    <glyph glyph-name="period" unicode="." horiz-adv-x="203" 
d="M179 68q0 -32 -22.5 -54.5t-54.5 -22.5t-55 22.5t-23 54.5t23 54.5t55 22.5t54.5 -22.5t22.5 -54.5z" />
    <glyph glyph-name="slash" unicode="/" horiz-adv-x="365" 
d="M141 -72h-117l200 800h117z" />
    <glyph glyph-name="zero" unicode="0" horiz-adv-x="597" 
d="M573 354q0 -56 -14 -121t-46.5 -120t-85 -91.5t-128.5 -36.5q-74 0 -126 34.5t-85 88t-48.5 119t-15.5 127.5q0 81 20 149t56.5 117.5t87 77t111.5 27.5q60 0 110.5 -27.5t87 -77t56.5 -117.5t20 -149zM430 354q0 57 -11 99.5t-29.5 71t-42 43t-47.5 14.5t-48 -14
t-43 -42.5t-30.5 -71.5t-11.5 -100q0 -38 7.5 -78.5t23 -73.5t40.5 -54.5t61 -21.5q34 0 59 21t41 54t23.5 73.5t7.5 79.5z" />
    <glyph glyph-name="one" unicode="1" horiz-adv-x="191" 
d="M24 0v628l143 97v-725h-143z" />
    <glyph glyph-name="two" unicode="2" horiz-adv-x="528" 
d="M127 0l225 450q9 19 9 40q0 19 -7.5 36.5t-20.5 31t-31 21.5t-39 8q-24 0 -42 -8.5t-30.5 -22.5t-19 -32t-6.5 -37v-4q1 -29 18 -54t51 -35l-64 -129q-38 15 -65.5 39t-45.5 53t-26.5 62.5t-8.5 67.5q0 45 15.5 88t46 77.5t75 55.5t102.5 21q52 0 96.5 -20.5t76.5 -54
t50 -77.5t18 -90q0 -26 -6.5 -51.5t-17.5 -48.5l-122 -245h141v-142h-372z" />
    <glyph glyph-name="three" unicode="3" horiz-adv-x="503" 
d="M292 536q48 -20 83.5 -48t58.5 -62.5t34 -72.5t11 -77q0 -53 -21 -105.5t-61 -93.5t-98 -66.5t-131 -25.5q-50 0 -92 13v150q21 -10 44.5 -15.5t47.5 -5.5q31 0 61.5 9t54.5 27.5t39 45.5t15 63q0 30 -14 57t-37 47t-54.5 31.5t-65.5 11.5h-143l124 163h-124v143h411z
" />
    <glyph glyph-name="four" unicode="4" horiz-adv-x="680" 
d="M563 119v-119h-142v119h-397l298 606h157l-226 -463h168v328h142v-328h93v-143h-93z" />
    <glyph glyph-name="five" unicode="5" horiz-adv-x="498" 
d="M474 272q0 -59 -25 -111t-67.5 -91t-99.5 -62t-121 -23q-46 0 -88 12v151q21 -10 43.5 -16t44.5 -6q35 0 66 11.5t54 31.5t36.5 46.5t13.5 56.5q0 35 -16.5 62t-43 45t-58.5 27.5t-63 9.5h-126l99 309h350v-143h-245l-9 -28q49 -9 95.5 -32.5t81.5 -60.5t56.5 -84.5
t21.5 -104.5z" />
    <glyph glyph-name="six" unicode="6" horiz-adv-x="618" 
d="M564 144q-37 -71 -103.5 -113t-149.5 -42q-66 0 -119 24.5t-90.5 64t-57.5 89t-20 98.5q0 34 8.5 70.5t24.5 73.5l158 316h159l-80 -160h15q64 0 116.5 -25.5t90 -66.5t58 -93t20.5 -105q0 -34 -7 -66.5t-23 -64.5zM307 131q42 0 69.5 14t44.5 35.5t24 46.5t7 48
q0 27 -10.5 53.5t-29 47.5t-45 33.5t-59.5 12.5q-34 0 -60.5 -13t-44.5 -34.5t-27 -49t-9 -55.5q1 -23 11 -47.5t28 -45t43 -33.5t58 -13z" />
    <glyph glyph-name="seven" unicode="7" horiz-adv-x="582" 
d="M201 0h-159l287 582h-305v143h534z" />
    <glyph glyph-name="eight" unicode="8" horiz-adv-x="628" 
d="M604 274q0 -60 -23 -112.5t-62.5 -91.5t-92 -62t-112.5 -23t-113 23t-92 62t-62 91.5t-23 112.5q0 48 14.5 91t40.5 79q-6 25 -6 52q0 49 19 92t51 75t75 50.5t91 18.5t91 -18.5t75.5 -51t51 -75.5t18.5 -91q0 -22 -4 -42q30 -37 46.5 -83t16.5 -97zM462 274
q0 51 -30 89.5t-76 52.5q21 12 33.5 33.5t12.5 46.5q0 19 -7 36t-20 29.5t-30 20t-36 7.5t-36 -7.5t-29.5 -20t-20 -29.5t-7.5 -36q0 -27 14 -49t36 -34q-43 -15 -71 -53t-28 -86q0 -30 11.5 -57t31.5 -47t47 -31.5t57 -11.5t57 11.5t47 32t32 47t12 56.5z" />
    <glyph glyph-name="nine" unicode="9" horiz-adv-x="617" 
d="M402 0h-159l81 162q-4 0 -8 -0.5t-8 -0.5q-63 0 -115 25t-89.5 65.5t-58.5 93t-21 106.5q0 65 24 118.5t64 91t91 58t104 20.5q67 0 120.5 -26t90 -66.5t56 -89.5t19.5 -96q0 -34 -7.5 -70.5t-24.5 -73.5zM453 455q0 28 -12 53.5t-32.5 45t-47 31t-55.5 11.5
q-27 0 -52.5 -10.5t-45 -29.5t-31 -45.5t-11.5 -59.5q0 -28 11 -54.5t30 -47.5t45.5 -33.5t58.5 -12.5q30 0 56 13t45 34t30 48.5t11 56.5z" />
    <glyph glyph-name="colon" unicode=":" horiz-adv-x="203" 
d="M179 68q0 -32 -22.5 -54.5t-54.5 -22.5t-55 22.5t-23 54.5t23 54.5t55 22.5t54.5 -22.5t22.5 -54.5zM179 278q0 -32 -22.5 -55t-54.5 -23t-55 23t-23 55t23 54.5t55 22.5t54.5 -22.5t22.5 -54.5z" />
    <glyph glyph-name="semicolon" unicode=";" horiz-adv-x="206" 
d="M70 -91l-46 37l35 50q-16 11 -25 28.5t-9 36.5q0 31 22 52.5t49 23.5h7q21 0 35.5 -8.5t24.5 -20t14.5 -24t4.5 -21.5q0 -20 -9 -36.5t-15 -22.5zM179 278q0 -32 -22.5 -55t-54.5 -23t-55 23t-23 55t23 54.5t55 22.5t54.5 -22.5t22.5 -54.5z" />
    <glyph glyph-name="less" unicode="&#x3c;" horiz-adv-x="575" 
d="M24 245v107l527 217v-96l-427 -172l427 -178v-95z" />
    <glyph glyph-name="equal" unicode="=" horiz-adv-x="600" 
d="M24 133v100h552v-100h-552zM24 363v100h552v-100h-552z" />
    <glyph glyph-name="greater" unicode="&#x3e;" horiz-adv-x="575" 
d="M24 28v95l427 178l-427 172v96l527 -217v-107z" />
    <glyph glyph-name="question" unicode="?" horiz-adv-x="466" 
d="M302 68q0 -32 -22.5 -54.5t-54.5 -22.5t-55 22.5t-23 54.5t23 54.5t55 22.5t54.5 -22.5t22.5 -54.5zM442 534q-1 -33 -7.5 -60.5t-23.5 -47.5l-111 -134q-8 -11 -8 -37v-71h-139v71q0 34 8 67.5t30 60.5l106 129q7 10 7 19q0 20 -14 37.5t-34 25.5l-130 -134l-102 100
l177 181q44 0 87.5 -12t77.5 -37t55 -64.5t21 -93.5z" />
    <glyph glyph-name="at" unicode="@" horiz-adv-x="914" 
d="M890 375q0 -58 -18 -115t-50.5 -102.5t-78.5 -73.5t-101 -28q-49 0 -79.5 25.5t-31.5 67.5q-56 -92 -137 -92q-73 0 -117 45t-44 124q0 56 22.5 105.5t58.5 87t81.5 59t92.5 21.5q96 0 107 -84l22 73h114l-86 -307q-7 -24 -7 -42q0 -46 34 -46q24 0 46.5 14t42 37t36 53
t28.5 61t18.5 61.5t6.5 54.5q0 68 -23.5 123t-66 94t-102.5 60t-133 21q-86 0 -160 -32.5t-128 -89.5t-84.5 -135t-30.5 -168q0 -80 25 -144t72.5 -108.5t114.5 -68t151 -23.5q45 0 83.5 7t75 20t73 31.5t78.5 41.5l22 -32q-73 -55 -156.5 -83t-173.5 -28
q-107 0 -192.5 28.5t-145.5 81t-92.5 126t-32.5 164.5q0 96 38.5 179.5t105.5 144.5t156 96t190 35q84 0 153.5 -24.5t119 -69.5t76.5 -107.5t27 -138.5zM563 407q0 49 -44 49q-25 0 -46 -17.5t-38.5 -45t-30.5 -61t-22.5 -65t-14 -58t-4.5 -39.5q0 -69 54 -69q24 0 44 20
t36 51t28.5 68t21 71t12.5 60t4 36z" />
    <glyph glyph-name="A" unicode="A" 
d="M373 0v130h-207v-130h-142v327q0 81 31.5 153.5t86 127t127 86t153.5 31.5l93 -7v-718h-142zM373 577q-45 -8 -83 -31t-65.5 -56.5t-43 -75.5t-15.5 -87v-55h207v305z" />
    <glyph glyph-name="B" unicode="B" horiz-adv-x="558" 
d="M534 275q0 -57 -22 -107t-59.5 -87.5t-87.5 -59.5t-107 -22h-234v726h242q13 0 45 -6t65.5 -25.5t59 -55t25.5 -94.5q0 -36 -12 -70q40 -39 62.5 -90.5t22.5 -108.5zM391 275q0 54 -38.5 92t-103.5 68q37 39 52 60.5t15 36.5q0 21 -15 35.5t-35 14.5h-99v-440h91
q27 0 51.5 10.5t42.5 28.5t28.5 42.5t10.5 51.5z" />
    <glyph glyph-name="C" unicode="C" horiz-adv-x="648" 
d="M624 50q-97 -68 -218 -68q-79 0 -148.5 30t-121.5 82t-82 121.5t-30 147.5t30.5 147.5t82.5 121.5t121.5 82.5t147.5 30.5q57 0 109 -16t100 -47l-78 -119q-29 20 -62.5 29.5t-68.5 9.5q-49 0 -92.5 -19t-76 -51.5t-51.5 -76t-19 -92.5q0 -50 19 -93.5t51 -76t75.5 -51.5
t93.5 -19q75 0 136 43l82 -116v0z" />
    <glyph glyph-name="D" unicode="D" horiz-adv-x="482" 
d="M458 362q0 -75 -28 -141t-77 -115t-115.5 -77.5t-142.5 -28.5h-71v725h71q74 0 140 -29t115.5 -78.5t78.5 -115.5t29 -140zM315 362q0 36 -11 69t-31 60.5t-47 47.5t-60 31v-416q33 11 60.5 32t47 48.5t30.5 60t11 67.5z" />
    <glyph glyph-name="E" unicode="E" horiz-adv-x="404" 
d="M301 -1q-57 0 -107.5 22t-88 60t-59.5 88.5t-22 106.5q0 75 35.5 136t93.5 98q-5 14 -8 28t-3 29q0 32 12.5 61t34.5 50.5t50.5 34t61.5 12.5h79v-143h-79q-8 0 -12 -5t-4 -11t4 -10.5t12 -4.5h79v-143h-96q-25 -3 -46.5 -14.5t-37.5 -29.5t-25 -40.5t-9 -47.5
q0 -27 10.5 -51.5t29 -43t43 -29t52.5 -10.5h79v-143h-79z" />
    <glyph glyph-name="F" unicode="F" horiz-adv-x="291" 
d="M167 582v-31h63v-143h-63v-408h-143v725h243v-143h-100z" />
    <glyph glyph-name="G" unicode="G" horiz-adv-x="799" 
d="M775 255q-24 -60 -58.5 -110t-80 -86.5t-103 -56.5t-126.5 -20q-79 0 -148.5 30t-121.5 82t-82.5 121.5t-30.5 147.5t30.5 147.5t82.5 121.5t122 82.5t148 30.5q77 0 143 -28l-54 -132q-41 17 -89 17q-50 0 -93.5 -19t-76 -51.5t-51.5 -76t-19 -92.5q0 -50 19 -93.5
t51.5 -76t76 -51.5t93.5 -19q66 0 121.5 32.5t86.5 89.5l-97 164h-143v142h225l175 -296v0z" />
    <glyph glyph-name="H" unicode="H" horiz-adv-x="508" 
d="M341 0v408h-174v-408h-143v725h143v-174h174v174h143v-725h-143z" />
    <glyph glyph-name="I" unicode="I" horiz-adv-x="191" 
d="M24 0v725h143v-725h-143z" />
    <glyph glyph-name="J" unicode="J" horiz-adv-x="200" 
d="M176 44q0 -42 -17 -80t-45.5 -66t-66.5 -44.5t-80 -16.5v141q28 1 47.5 19.5t19.5 46.5v681h142v-681v0z" />
    <glyph glyph-name="K" unicode="K" horiz-adv-x="661" 
d="M632 0h-144q4 19 5.5 38t1.5 38q0 76 -25 144t-69 122t-104.5 92t-130.5 54v-488h-142v725h142v-92q50 -7 102 -26l113 118h198l-180 -187q56 -39 100 -90.5t75 -111t47 -125.5t16 -135z" />
    <glyph glyph-name="L" unicode="L" horiz-adv-x="360" 
d="M24 -1v726h142v-583h170v-143h-312z" />
    <glyph glyph-name="M" unicode="M" horiz-adv-x="768" 
d="M601 0v335q0 42 -14 81t-38.5 71t-59 54.5t-75.5 33.5v-575h-142v518q-22 20 -49 35t-56 22v-575h-143v725h29q56 0 108.5 -5t110.5 -32v37h82q79 0 150 -31t124.5 -84.5t84.5 -124.5t31 -150v-335h-143z" />
    <glyph glyph-name="N" unicode="N" horiz-adv-x="520" 
d="M353 0v335q0 42 -14 81t-38.5 71t-59 54.5t-75.5 33.5v-575h-142v725q45 0 87.5 -1.5t83 -10t80 -26.5t78.5 -51v89h143v-725h-143z" />
    <glyph glyph-name="O" unicode="O" horiz-adv-x="812" 
d="M788 365q0 -78 -30.5 -147.5t-82.5 -121.5t-121.5 -82t-147.5 -30t-147.5 30t-121.5 82t-82.5 121.5t-30.5 147.5t30.5 147.5t82.5 121.5t121.5 82.5t147.5 30.5t147.5 -30.5t121.5 -82.5t82.5 -121.5t30.5 -147.5zM646 365q0 49 -19 92.5t-52 76.5t-76.5 52t-92.5 19
t-92.5 -19t-76 -52t-51.5 -76.5t-19 -92.5t19 -92.5t51.5 -76t76 -51.5t92.5 -19t92.5 19t76.5 51.5t52 76t19 92.5z" />
    <glyph glyph-name="P" unicode="P" horiz-adv-x="409" 
d="M95 726q60 0 112.5 -23t92 -62.5t62.5 -92t23 -111.5q0 -49 -16.5 -94.5t-45.5 -82.5t-69 -63.5t-87 -37.5v-160h-143v727h71zM167 311q34 18 54.5 52t20.5 74q0 42 -20.5 75.5t-54.5 52.5v-254z" />
    <glyph glyph-name="Q" unicode="Q" horiz-adv-x="812" 
d="M788 364q0 -76 -28 -144t-77 -120l58 -50l-92 -108l-86 73q-36 -15 -75.5 -24t-81.5 -9q-78 0 -147.5 30.5t-121.5 82.5t-82.5 121.5t-30.5 147.5t30.5 147.5t82.5 121.5t121.5 82.5t147.5 30.5t147.5 -30.5t121.5 -82.5t82.5 -121.5t30.5 -147.5zM406 124q8 0 14.5 0.5
t13.5 1.5l-267 228q2 -48 21.5 -89.5t52 -73t75 -49.5t90.5 -18zM574 193q33 33 52.5 76.5t19.5 94.5q0 49 -19 92.5t-52 76t-76.5 51.5t-92.5 19q-60 0 -111 -27t-83 -73z" />
    <glyph glyph-name="R" unicode="R" horiz-adv-x="556" 
d="M532 0h-182l-57 72q-27 -19 -57 -31l-56 131q65 28 97.5 82.5t32.5 114.5q0 32 -9 63t-27 57.5t-44.5 48t-62.5 33.5v-571h-143v726h72q82 0 148 -31t112.5 -81.5t71.5 -115t25 -131.5q0 -50 -14.5 -99.5t-44.5 -94.5z" />
    <glyph glyph-name="S" unicode="S" horiz-adv-x="287" 
d="M262 665q-41 -20 -67.5 -59t-26.5 -89q0 -36 14 -71t32 -68q5 -9 13 -28.5t16 -43.5t14 -50t6 -48q0 -43 -12.5 -85t-35.5 -78.5t-56 -66.5t-74 -50l-61 127q45 22 70.5 63.5t25.5 89.5q0 9 -2 19.5t-8.5 28.5t-20 48t-35.5 78q-16 33 -23 65t-7 67q0 43 12 84.5t35 78.5
t56 67t74 50l61 -129v0z" />
    <glyph glyph-name="T" unicode="T" horiz-adv-x="382" 
d="M358 726v-143h-96v-583h-143v583h-95v143h334z" />
    <glyph glyph-name="U" unicode="U" horiz-adv-x="532" 
d="M366 726h142v-502q0 -50 -19.5 -94t-52.5 -77t-77 -52t-93 -19q-50 0 -94 19t-77 52t-52 77t-19 94v502h143v-502q0 -42 28.5 -71t70.5 -29t71 29t29 71v502z" />
    <glyph glyph-name="V" unicode="V" horiz-adv-x="520" 
d="M354 726h142v-336q0 -79 -31 -150t-84 -124t-124 -84.5t-151 -31.5h-82v726h142v-576q41 10 75.5 33t59.5 55t39 71t14 81v336z" />
    <glyph glyph-name="W" unicode="W" horiz-adv-x="767" 
d="M743 391q0 -80 -31 -151t-84 -124t-124 -84.5t-151 -31.5h-82v38q-38 -18 -79 -28t-86 -10h-82v726h142v-575q29 8 56 22t49 34v519h143v-575q40 10 74.5 32.5t59.5 54.5t39 71.5t14 81.5v335h142v-335z" />
    <glyph glyph-name="X" unicode="X" horiz-adv-x="586" 
d="M370 450l192 -450h-155l-114 265l-114 -265h-155l192 450l-105 276h155l27 -65l27 65h154z" />
    <glyph glyph-name="Y" unicode="Y" horiz-adv-x="580" 
d="M361 228v-228h-143v228l-194 498h153l113 -289l113 289h153z" />
    <glyph glyph-name="Z" unicode="Z" horiz-adv-x="538" 
d="M483 143v-143h-459l268 583h-129v143h351l-267 -583h236z" />
    <glyph glyph-name="backslash" unicode="\" horiz-adv-x="365" 
d="M24 728h117l200 -800h-117z" />
    <glyph glyph-name="bracketright" unicode="]" horiz-adv-x="280" 
d="M24 -161v143h90v630h-90v143h232v-916h-232z" />
    <glyph glyph-name="asciicircum" unicode="^" horiz-adv-x="644" 
d="M556 438l-234 154l-233 -154h-65l228 276h141l227 -276h-64z" />
    <glyph glyph-name="underscore" unicode="_" horiz-adv-x="500" 
d="M0 -236v138h500v-138h-500z" />
    <glyph glyph-name="grave" unicode="`" horiz-adv-x="263" 
d="M221 798l-197 65l29 71l186 -94z" />
    <glyph glyph-name="a" unicode="a" 
d="M373 0v130h-207v-130h-142v725h93q81 0 153.5 -31.5t127 -86t86 -127t31.5 -153.5v-327h-142zM373 327q0 45 -16 86.5t-43.5 75t-65.5 57t-82 31.5v-305h207v55z" />
    <glyph glyph-name="b" unicode="b" horiz-adv-x="558" 
d="M534 449q0 -57 -22.5 -108t-61.5 -89q5 -14 7 -29t2 -30q0 -39 -15 -74.5t-41 -61.5t-61 -41.5t-75 -15.5h-243v725h234q56 0 106 -21.5t88 -59t60 -88t22 -107.5zM391 449q0 27 -10.5 51.5t-28.5 43t-42.5 29t-51.5 10.5h-91v-441h100q20 0 35 15t15 36q0 4 -1.5 9.5
t-8.5 15.5t-21 27t-39 45q44 25 72 46.5t44 40t22 36.5t6 36z" />
    <glyph glyph-name="c" unicode="c" horiz-adv-x="430" 
d="M406 -19q-78 1 -147.5 31.5t-121.5 82t-82.5 121t-30.5 147.5t30.5 147.5t82.5 121.5t121.5 82.5t147.5 30.5v-142q-49 0 -92.5 -19t-76 -52t-51.5 -76.5t-19 -92.5t19 -92.5t51.5 -76t76 -51.5t92.5 -19v-143v0z" />
    <glyph glyph-name="d" unicode="d" horiz-adv-x="482" 
d="M458 362q0 -75 -29 -141t-78.5 -115t-115.5 -77.5t-140 -28.5h-71v725h71q74 0 140 -29t115.5 -78.5t78.5 -115.5t29 -140zM315 362q0 36 -11 69t-31 60.5t-47 47.5t-60 31v-416q33 11 60.5 32t47 48.5t30.5 60t11 67.5z" />
    <glyph glyph-name="e" unicode="e" horiz-adv-x="404" 
d="M301 0q-32 0 -61 12.5t-51 34t-34.5 50t-12.5 61.5q0 30 11 57q-58 37 -93.5 98t-35.5 136q0 57 22 107t59.5 87.5t88 59.5t107.5 22h79v-142h-79q-27 0 -51.5 -10.5t-43 -29t-29.5 -43t-11 -51.5q0 -26 9 -50t25 -42.5t37.5 -29.5t46.5 -11h96v-142h-80q-4 0 -10 -2.5
t-6 -13.5q0 -6 5 -11t12 -5h79v-142h-79z" />
    <glyph glyph-name="f" unicode="f" horiz-adv-x="461" 
d="M166 583v-266h199v-142h-199v-175h-142v725h413v-142h-271z" />
    <glyph glyph-name="g" unicode="g" horiz-adv-x="593" 
d="M569 13q-33 -8 -76 -19.5t-87 -11.5q-78 0 -147.5 30t-121.5 82t-82.5 121.5t-30.5 147.5t30.5 147.5t82.5 121.5t121.5 82.5t147.5 30.5v-142q-49 0 -92.5 -19t-76 -52t-51.5 -76.5t-19 -92.5t19 -92.5t51.5 -76t76 -51.5t92.5 -19h10.5t10.5 1v281h-114v143h256v-536v0
z" />
    <glyph glyph-name="h" unicode="h" horiz-adv-x="509" 
d="M343 0v175h-176v-175h-143v725h143v-408h176v408h142v-725h-142z" />
    <glyph glyph-name="i" unicode="i" horiz-adv-x="191" 
d="M24 0v725h143v-725h-143z" />
    <glyph glyph-name="j" unicode="j" horiz-adv-x="199" 
d="M175 44q0 -42 -17 -80t-45.5 -66t-66.5 -44.5t-80 -16.5v141q28 1 47.5 19.5t19.5 46.5v681h142v-681v0z" />
    <glyph glyph-name="k" unicode="k" horiz-adv-x="661" 
d="M632 726q2 -19 3.5 -37.5t1.5 -37.5q0 -67 -16 -133t-47 -126t-75 -112.5t-99 -92.5l179 -187h-197l-114 118q-25 -9 -50.5 -15.5t-51.5 -11.5v-91h-142v726h142v-489q74 16 134.5 56t103.5 95.5t66.5 123t23.5 139.5q0 40 -7 75h145v0z" />
    <glyph glyph-name="l" unicode="l" horiz-adv-x="360" 
d="M24 -1v726h142v-583h170v-143h-312z" />
    <glyph glyph-name="m" unicode="m" horiz-adv-x="768" 
d="M601 0v575q-29 -7 -55.5 -22t-49.5 -35v-518h-142v575q-41 -11 -75.5 -33.5t-59 -54.5t-38.5 -71t-14 -81v-335h-143v335q0 80 31.5 151t84.5 124t124 84t150 31h82v-37q31 13 57 20t50.5 11t50 5t55.5 1h35v-725h-143z" />
    <glyph glyph-name="n" unicode="n" horiz-adv-x="520" 
d="M353 0v335q0 42 -14 81t-38.5 71t-59 54.5t-75.5 33.5v-575h-142v725q45 0 87.5 -1.5t83 -10t80 -26.5t78.5 -51v89h143v-725h-143z" />
    <glyph glyph-name="o" unicode="o" horiz-adv-x="630" 
d="M40 0v142h551v-142h-551zM606 457q0 -60 -23 -113t-62.5 -92.5t-92.5 -62.5t-113 -23t-113 23t-92.5 62.5t-62.5 92.5t-23 113t23 112.5t63 92.5t92.5 63t112.5 23q59 0 112 -23t92.5 -63t63 -92.5t23.5 -112.5zM464 457q0 37 -13 64.5t-34 45.5t-47.5 27t-54.5 9
q-26 0 -52.5 -9t-47.5 -27t-34.5 -45.5t-13.5 -64.5q0 -38 13 -65.5t34 -46t48 -27.5t54 -9t53.5 9t47.5 27.5t34 46t13 65.5z" />
    <glyph glyph-name="p" unicode="p" horiz-adv-x="482" 
d="M458 725q-1 -65 -23 -123.5t-60.5 -106t-91.5 -80t-116 -45.5v-370h-143v725h434zM167 582v-65q29 10 52.5 26.5t42.5 38.5h-95z" />
    <glyph glyph-name="q" unicode="q" horiz-adv-x="630" 
d="M606 457q0 -60 -23 -112.5t-62.5 -92.5t-92 -63t-112.5 -23q-22 0 -29 2.5t-12 2.5t-7 -6t-10 -23h333v-142h-548l96 226q-52 40 -83.5 100.5t-31.5 130.5q0 60 23 112.5t63 92.5t93 63t113 23q59 0 112 -23.5t92.5 -63t62.5 -92.5t23 -112zM464 457q0 30 -11.5 57
t-32 47.5t-47.5 32t-57 11.5q-31 0 -58 -11.5t-47.5 -31.5t-32 -47t-11.5 -58q0 -52 31 -91l50 118l131 -55l-50 -120q28 2 52.5 15t43 33t29 46t10.5 54z" />
    <glyph glyph-name="r" unicode="r" horiz-adv-x="557" 
d="M350 0l-183 229v-229h-143v725h72q64 0 115.5 -24t87.5 -63.5t55 -89.5t19 -101q0 -45 -14.5 -89t-46.5 -82l221 -276h-183zM167 336q32 22 47.5 53t15.5 64q-2 35 -17.5 63t-45.5 46v-226z" />
    <glyph glyph-name="s" unicode="s" horiz-adv-x="615" 
d="M521 583q-38 0 -69.5 -24t-40.5 -62l-73 -303q-10 -42 -33.5 -77.5t-56.5 -61.5t-73 -40.5t-83 -14.5h-68v142h68q28 0 47.5 9.5t33 27t22 42t15.5 53.5l63 257q10 43 34 78.5t57 61t73 40t84 14.5h70v-142h-70z" />
    <glyph glyph-name="t" unicode="t" horiz-adv-x="382" 
d="M262 583v-583h-143v583h-95v143h334v-143h-96z" />
    <glyph glyph-name="u" unicode="u" horiz-adv-x="532" 
d="M508 224q0 -50 -19.5 -94t-52.5 -77t-77 -52t-93 -19q-50 0 -94 19t-77 52t-52 77t-19 94v502h143v-502q0 -42 28.5 -71t70.5 -29t71 29t29 71v502h142v-502v0z" />
    <glyph glyph-name="v" unicode="v" horiz-adv-x="520" 
d="M414 0q-80 0 -151 31t-124 84t-84 124t-31 151v336h142v-336q0 -42 14 -81t39 -71t59.5 -55t75.5 -33v576h142v-726h-82z" />
    <glyph glyph-name="w" unicode="w" horiz-adv-x="767" 
d="M661 0q-43 0 -85 10t-80 28v-38h-82q-80 0 -151 31t-124 84t-84 124.5t-31 151.5v335h142v-335q0 -44 14.5 -83t39.5 -70.5t59 -54t74 -32.5v575h143v-519q45 -39 105 -56v575h142v-726h-82z" />
    <glyph glyph-name="x" unicode="x" horiz-adv-x="555" 
d="M355 305l130 -305h-155l-52 120l-52 -120h-155l129 305l-176 420h155l99 -235l98 235h155z" />
    <glyph glyph-name="y" unicode="y" horiz-adv-x="580" 
d="M361 228v-228h-143v228l-194 497h153l113 -288l113 288h153z" />
    <glyph glyph-name="z" unicode="z" horiz-adv-x="538" 
d="M247 143h239v-143h-462l268 583h-236v142h458z" />
    <glyph glyph-name="braceleft" unicode="{" horiz-adv-x="379" 
d="M355 -119q-60 1 -99.5 8.5t-63 26.5t-33.5 51t-10 82v86q0 40 -5 67.5t-19 45.5t-38.5 27t-62.5 13v44q39 4 63 13.5t38 27t19 45t5 67.5v86q0 50 10 82.5t34 52t63.5 27t98.5 7.5v-35q-28 -1 -44.5 -8t-25.5 -22.5t-12 -39.5t-3 -58v-61q0 -45 -3 -79t-13.5 -59
t-32 -41.5t-57.5 -26.5q36 -10 57 -26t32 -41t14 -59t3 -79v-62q0 -34 3 -58t12 -39t26 -22t44 -8v-35v0z" />
    <glyph glyph-name="bar" unicode="|" horiz-adv-x="185" 
d="M24 -236v1000h137v-1000h-137z" />
    <glyph glyph-name="braceright" unicode="}" horiz-adv-x="379" 
d="M355 288q-38 -4 -62 -13t-38 -26.5t-19.5 -45.5t-5.5 -68v-86q0 -49 -10 -81t-34 -51t-63.5 -27t-98.5 -8v33q27 1 44 8t26 22.5t12 39.5t3 58v62q0 45 3 79t14 59t32 41t57 26q-37 10 -58 26.5t-31.5 41.5t-13.5 59t-3 79v61q0 34 -3 58t-12 39.5t-25.5 22.5t-44.5 8v35
q59 0 98.5 -8t63.5 -27.5t34 -52t10 -81.5v-86q0 -40 5 -67.5t19 -45.5t38.5 -27t62.5 -13v-44v0z" />
    <glyph glyph-name="asciitilde" unicode="~" horiz-adv-x="708" 
d="M684 315q-95 -65 -181 -65q-40 0 -74.5 9.5t-68.5 21.5t-70 21.5t-79 9.5t-88 -19.5t-99 -57.5v96q53 33 101.5 51.5t97.5 18.5q32 0 81.5 -10.5t106.5 -33.5q22 -8 43 -13.5t46 -5.5q48 0 90.5 18t93.5 55v-96v0z" />
    <glyph glyph-name="dagger" unicode="&#x2020;" horiz-adv-x="579" 
d="M555 466q0 -80 -73 -80q-15 0 -30.5 6t-33.5 13.5t-39.5 15t-47.5 11.5v-4q0 -39 14.5 -85t40.5 -100q-25 -54 -37.5 -166.5t-17.5 -286.5h-85q-5 174 -17 286.5t-38 166.5q26 54 40.5 100.5t15.5 88.5q-26 -4 -47.5 -11.5t-39.5 -15t-34 -13.5t-30 -6q-72 0 -72 80
q0 79 72 79q15 0 31.5 -6t35.5 -13.5t41 -15.5t48 -11q-3 26 -10.5 48t-16 42t-15 38.5t-6.5 37.5q0 35 22 55.5t62 20.5t62.5 -20.5t22.5 -55.5q0 -22 -7 -41.5t-16 -39t-16 -40.5t-7 -45q26 3 47.5 11t40.5 15.5t35.5 13.5t31.5 6q73 0 73 -79z" />
    <glyph glyph-name="cent" unicode="&#xa2;" horiz-adv-x="362" 
d="M338 45q-19 0 -37.5 2.5t-37.5 6.5v-58h-71v85q-38 20 -69 50t-53 66t-34 77t-12 85q0 45 12 86.5t34.5 77.5t53 65t68.5 49v93h70v-66q18 5 37.5 7t38.5 2v-142q-35 0 -66 -13.5t-54.5 -37t-37.5 -55t-14 -66.5q0 -36 13.5 -67t37 -54.5t54.5 -37t67 -13.5v-142v0z" />
    <glyph glyph-name="sterling" unicode="&#xa3;" horiz-adv-x="573" 
d="M549 167q-10 -38 -31 -68.5t-50.5 -53t-65 -34.5t-73.5 -12h-286v140q12 3 23.5 10.5t21 18t15.5 23t6 24.5v6q0 1 -0.5 2.5t-0.5 2.5q-6 22 -8 36.5t-4 22t-5.5 10.5t-12.5 3q-8 0 -20.5 -1t-33.5 -1v71h49q-6 41 -17 76.5t-11 73.5q0 51 21 90.5t53.5 66.5t72.5 41.5
t78 14.5q37 0 73.5 -12t67 -35t52.5 -58.5t30 -81.5l-141 -24q-6 37 -29.5 53t-52.5 16q-15 0 -30 -5.5t-27 -15t-19.5 -23t-7.5 -29.5q0 -4 0.5 -7.5t1.5 -8.5l32 -132h129v-71h-111q5 -22 9 -43t4 -41q0 -16 -3 -33.5t-11 -36.5h92q29 0 52 17t30 44l138 -36v0z" />
    <glyph glyph-name="section" unicode="&#xa7;" horiz-adv-x="1303" 
d="M1271 692v-290h-85v204h-50v86h135zM982 334q-9 0 -9 -9t9 -9h170v-41h-170q-9 0 -9 -9q0 -8 9 -8h170v-42h-170q-20 0 -34.5 15t-14.5 35q0 19 9 29q-9 12 -9 30q0 20 14.5 35t34.5 15h170v-41h-170zM372 316v-41h-180v-59h-41v109q0 20 14.5 35t35.5 15h171v-41h-171
q-9 0 -9 -9v-9h180zM410 375h232v-55q0 -25 -16.5 -42.5t-40.5 -20.5l39 -41h-56l-37 41h-61v41h110q9 0 15 6t6 16v13h-150v-117h-41v159zM727 334q-9 0 -9 -9t9 -9h170v-41h-170q-9 0 -9 -9q0 -8 9 -8h170v-42h-170q-21 0 -35.5 15t-14.5 35q0 18 10 29q-10 13 -10 30
q0 20 14.5 35t35.5 15h170v-41h-170zM1019 190v-41h-115v-77h49v-41h-91v118h-71v41h228zM1193 72q20 0 31 17h-176v21q0 33 23 56.5t56 23.5h144v-41h-144q-22 0 -32 -19h176v-20q0 -32 -23 -55.5t-55 -23.5h-145v41h145zM253 130v-41h-179v-58h-42v108q0 21 15 36t35 15
h171v-41h-171q-8 0 -8 -10v-9h179zM757 31h-60q-8 27 -21.5 48.5t-36.5 39.5q-14 11 -30.5 18t-34.5 9v-115h-41v158h23q29 0 57 -10t51 -28q32 -24 52 -62v101h41v-159zM496 189v-73q0 -35 -25 -60t-60 -25h-135v73q0 35 25.5 60t60.5 25h134zM362 148q-18 0 -31.5 -12.5
t-13.5 -31.5v-32h94q18 0 31 13t13 31v32h-93zM167 692v-290h-86v204h-49v86h135zM1078 692v-134q0 -32 -12.5 -60.5t-33.5 -49.5t-49.5 -33.5t-59.5 -12.5h-242v134q0 32 12.5 60.5t33.5 49.5t49.5 33.5t60.5 12.5h241zM837 606q-29 0 -49.5 -20.5t-20.5 -49.5v-49h156
q29 0 49 21t20 50v48h-155zM623 692v-134q0 -32 -12.5 -60.5t-33.5 -49.5t-49.5 -33.5t-60.5 -12.5h-241v134q0 32 12.5 60.5t33.5 49.5t49.5 33.5t60.5 12.5h241zM382 606q-29 0 -50 -20.5t-21 -49.5v-49h156q29 0 49.5 21t20.5 50v48h-155z" />
    <glyph glyph-name="paragraph" unicode="&#xb6;" horiz-adv-x="474" 
d="M401 665v-873h-75v873h-52v-873h-75v603q-85 4 -130 47t-45 110q0 72 48 115t130 43h248v-45h-49z" />
    <glyph glyph-name="germandbls" unicode="&#xdf;" horiz-adv-x="538" 
d="M502 540q0 -26 -7.5 -48t-18 -40t-21.5 -30.5t-17 -18.5q0 -1 -11 -11t-11 -32q0 -12 6.5 -26t23.5 -31q35 -35 51.5 -76t16.5 -84q0 -45 -17 -87t-47.5 -75t-73.5 -53t-94 -20v142q20 0 36.5 8.5t28.5 22t18.5 30t6.5 33.5q0 33 -25 57q-81 76 -81 159q0 35 18 73
q6 12 18.5 27.5l25 31t22 29t9.5 22.5q0 20 -21 31.5t-48 11.5q-27 -1 -49.5 -18t-22.5 -55v-513h-142v291l-52 72h52v150q0 53 20 93t51 67t69 40.5t74 13.5q40 0 78.5 -11.5t68 -35t47.5 -58.5t18 -82z" />
    <glyph glyph-name="registered" unicode="&#xae;" horiz-adv-x="339" 
d="M315 615q0 -29 -11.5 -55t-31 -46.5t-46 -32.5t-56.5 -12t-56.5 11.5t-46.5 31.5t-31.5 46.5t-11.5 56.5t11.5 56.5t31.5 46.5t46.5 31.5t56.5 11.5q29 0 54 -10.5t44.5 -29.5t31.5 -44t15 -53v-9zM296 615q0 25 -9 46.5t-25 38.5t-37.5 27.5t-45.5 13.5h-9
q-26 0 -49 -10t-40 -27t-27.5 -40t-10.5 -49t10 -49t27.5 -40t40.5 -27t49 -10t49 10.5t40 28t27 40t10 47.5zM205 529l-48 61v-61h-38v192h19q34 0 53.5 -23t19.5 -51q0 -26 -16 -45l59 -73h-49zM157 618q17 12 17 31q-2 18 -17 28v-59z" />
    <glyph glyph-name="copyright" unicode="&#xa9;" horiz-adv-x="776" 
d="M752 381q0 -72 -28 -137.5t-76.5 -116t-115 -80.5t-144.5 -30q-74 0 -140 28.5t-115.5 78t-79 116t-29.5 141.5q0 74 28.5 140.5t78 116.5t116 79t142.5 29q74 0 140 -29t115.5 -78.5t78.5 -116t29 -141.5zM703 381q0 66 -25.5 123.5t-68.5 100.5t-100.5 67.5
t-120.5 24.5q-66 0 -123.5 -25.5t-100 -69t-67.5 -100.5t-25 -121q0 -65 25.5 -122.5t68.5 -100.5t100.5 -67.5t121.5 -24.5q67 0 124.5 26.5t100 70.5t66.5 100.5t24 117.5zM533 195q-59 -41 -131 -41q-47 0 -89 18t-73 49t-49 73t-18 89t18 88.5t49 73t73 49.5t89 18
q33 0 65 -9.5t60 -28.5l-47 -71q-17 12 -37 17.5t-41 5.5q-29 0 -55 -11t-46 -30.5t-31.5 -45.5t-11.5 -56t11.5 -56t31 -45.5t45.5 -31t56 -11.5q44 0 81 26z" />
    <glyph glyph-name="trademark" unicode="&#x2122;" horiz-adv-x="470" 
d="M119 686v-233h-57v233h-38v58h133v-58h-38zM389 455v230q-23 -6 -42 -23v-207h-57v230q-33 -9 -54 -35.5t-21 -60.5v-134h-57v134q0 32 12.5 60.5t34 49.5t49.5 33.5t60 12.5h33v-15q23 11 45 13t48 2h6v-290h-57z" />
    <glyph glyph-name="acute" unicode="&#xb4;" horiz-adv-x="263" 
d="M42 798l-18 42l186 94l29 -71z" />
    <glyph glyph-name="dieresis" unicode="&#xa8;" horiz-adv-x="272" 
d="M73 887q20 0 34.5 -14.5t14.5 -35.5q0 -20 -14.5 -34t-34.5 -14q-21 0 -35 14.5t-14 34.5t15 34.5t34 14.5zM199 887q20 0 34.5 -14.5t14.5 -35.5q0 -20 -14.5 -34t-34.5 -14q-21 0 -34.5 14.5t-13.5 34.5t14.5 34.5t33.5 14.5z" />
    <glyph glyph-name="AE" unicode="&#xc6;" horiz-adv-x="709" 
d="M373 0v130h-206v-130h-143v327q0 74 26.5 145.5t73.5 127t110.5 89.5t138.5 34h312v-141h-169v-32h86v-143h-86v-264h169v-143h-312zM373 577q-44 -8 -82 -31t-65.5 -56.5t-43 -75.5t-15.5 -87v-54h206v304z" />
    <glyph glyph-name="Oslash" unicode="&#xd8;" horiz-adv-x="812" 
d="M788 365q0 -78 -30.5 -147.5t-82.5 -121.5t-121.5 -82t-147.5 -30q-66 0 -126 21.5t-109 59.5l-65 -72h-78l100 110q-48 52 -76 119t-28 143q0 78 30.5 147.5t82.5 121.5t121.5 82.5t147.5 30.5q67 0 126.5 -21.5t108.5 -59.5l66 72h78l-101 -111q49 -51 76.5 -118.5
t27.5 -143.5zM646 365q0 45 -15.5 85t-42.5 71l-321 -351q30 -21 65.5 -32.5t73.5 -11.5q49 0 92.5 19t76.5 51.5t52 76t19 92.5zM545 560q-29 21 -64.5 33t-74.5 12q-49 0 -92.5 -19t-76 -52t-51.5 -76.5t-19 -92.5q0 -45 15.5 -84.5t42.5 -71.5z" />
    <glyph glyph-name="plusminus" unicode="&#xb1;" horiz-adv-x="600" 
d="M24 -4v100h552v-100h-552zM352 348v-151h-104v151h-224v100h224v151h104v-151h224v-100h-224z" />
    <glyph glyph-name="yen" unicode="&#xa5;" horiz-adv-x="587" 
d="M441 420h99v-71h-127l-11 -28h138v-71h-166l-10 -25v-226h-142v226l-10 25h-164v71h136l-11 28h-125v71h97l-121 310h153l116 -296l116 296h154z" />
    <glyph glyph-name="mu" unicode="&#xb5;" horiz-adv-x="595" 
d="M467 185q0 -5 -0.5 -12.5t-0.5 -17.5q0 -15 1.5 -31.5t6 -30.5t12.5 -23.5t22 -9.5q12 0 19.5 7.5t12 18t6.5 22t4 19.5h21q-3 -23 -8.5 -46t-17 -41t-29.5 -29t-46 -11q-22 0 -38.5 8.5t-28 23.5t-17.5 34.5t-8 41.5q-17 -19 -38.5 -38t-45.5 -34.5t-50.5 -25.5
t-54.5 -10q-26 0 -49 10.5t-43 26.5v-5q0 -13 3.5 -31t9.5 -44q11 -42 11 -57q0 -22 -12 -43t-36 -21q-13 0 -22 6t-15 16t-9 21.5t-3 22.5q0 14 6 37q7 24 12 46t8 43t4.5 43t1.5 47v390h90v-309q0 -31 3 -55t13 -41t27 -26t46 -9q40 0 78 22t65 49v369h89v-323z" />
    <glyph glyph-name="mu" unicode="&#x3bc;" horiz-adv-x="595" 
d="M467 185q0 -5 -0.5 -12.5t-0.5 -17.5q0 -15 1.5 -31.5t6 -30.5t12.5 -23.5t22 -9.5q12 0 19.5 7.5t12 18t6.5 22t4 19.5h21q-3 -23 -8.5 -46t-17 -41t-29.5 -29t-46 -11q-22 0 -38.5 8.5t-28 23.5t-17.5 34.5t-8 41.5q-17 -19 -38.5 -38t-45.5 -34.5t-50.5 -25.5
t-54.5 -10q-26 0 -49 10.5t-43 26.5v-5q0 -13 3.5 -31t9.5 -44q11 -42 11 -57q0 -22 -12 -43t-36 -21q-13 0 -22 6t-15 16t-9 21.5t-3 22.5q0 14 6 37q7 24 12 46t8 43t4.5 43t1.5 47v390h90v-309q0 -31 3 -55t13 -41t27 -26t46 -9q40 0 78 22t65 49v369h89v-323z" />
    <glyph glyph-name="ordfeminine" unicode="&#xaa;" horiz-adv-x="298" 
d="M24 281v55h245v-55h-245zM203 367v65h-103v-65h-71v359l46 5q41 0 77 -16t63 -43t43 -63.5t16 -76.5v-165h-71zM203 532q0 46 -29 80.5t-74 44.5v-154h103v29z" />
    <glyph glyph-name="ordmasculine" unicode="&#xba;" horiz-adv-x="430" 
d="M29 281v55h375v-55h-375zM406 546q0 -39 -15 -74t-41 -61t-60.5 -41.5t-74.5 -15.5t-74.5 15.5t-60.5 41.5t-41 61t-15 74t15 73.5t41.5 61t61 41.5t73.5 15t73.5 -15t61 -41.5t41.5 -61t15 -73.5zM335 546q0 25 -9.5 46.5t-26 38t-38 26t-46.5 9.5t-46.5 -9.5t-37.5 -26
t-25.5 -38.5t-9.5 -46t9.5 -46t25.5 -38.5t38 -26.5t46 -10q25 0 46.5 10t38 26.5t26 38.5t9.5 46z" />
    <glyph glyph-name="ae" unicode="&#xe6;" horiz-adv-x="709" 
d="M373 0v130h-206v-130h-143v327q0 74 26.5 145.5t73.5 127t110.5 89.5t138.5 34h312v-141h-169v-32h86v-143h-86v-264h169v-143h-312zM373 577q-44 -8 -82 -31t-65.5 -56.5t-43 -75.5t-15.5 -87v-54h206v304z" />
    <glyph glyph-name="oslash" unicode="&#xf8;" horiz-adv-x="630" 
d="M40 0v142h551v-142h-551zM606 457q0 -60 -23 -113t-62.5 -92.5t-92.5 -62.5t-113 -23q-43 0 -83.5 12.5t-74.5 34.5l-40 -50h-72l68 85q-42 40 -65.5 94t-23.5 115q0 60 23 112.5t63 92.5t92.5 63t112.5 23q45 0 85.5 -12.5t74.5 -35.5l39 47h72l-67 -83
q42 -39 64.5 -92.5t22.5 -114.5zM464 457q0 31 -9 55t-25 42l-184 -230q16 -7 34 -11t38 -4q27 0 53 9.5t47 28t33.5 46.5t12.5 64zM385 588q-16 8 -34 11.5t-36 3.5q-26 0 -52.5 -9t-47.5 -27t-34.5 -45.5t-13.5 -64.5q0 -31 9 -56t25 -43z" />
    <glyph glyph-name="questiondown" unicode="&#xbf;" horiz-adv-x="466" 
d="M24 -20q1 32 7.5 60t23.5 48l111 134q8 11 8 37v71h139v-71q0 -34 -8 -67.5t-30 -60.5l-106 -129q-7 -7 -7 -18q0 -20 14 -37.5t34 -25.5l130 133l102 -100l-177 -181q-44 1 -87 12.5t-77.5 36.5t-55.5 64t-21 94zM164 446q0 32 22.5 55t54.5 23t55 -23t23 -55t-23 -54.5
t-55 -22.5t-54.5 22.5t-22.5 54.5z" />
    <glyph glyph-name="exclamdown" unicode="&#xa1;" horiz-adv-x="207" 
d="M42 342h125l16 -550h-159zM26 454q0 16 6.5 30.5t17 25t24.5 16.5t29 6q32 0 55 -23t23 -55t-23 -54.5t-55 -22.5q-15 0 -29 6t-24.5 16.5t-17 24.5t-6.5 30z" />
    <glyph glyph-name="logicalnot" unicode="&#xac;" horiz-adv-x="633" 
d="M476 179v115h-452v130h585v-245h-133z" />
    <glyph glyph-name="guillemotleft" unicode="&#xab;" horiz-adv-x="361" 
d="M171 225l-147 148l147 147l42 -41l-105 -106l105 -106zM295 225l-147 148l147 147l42 -41l-105 -106l105 -106z" />
    <glyph glyph-name="guillemotright" unicode="&#xbb;" horiz-adv-x="361" 
d="M66 225l-42 42l105 106l-105 106l42 41l147 -147zM190 225l-42 42l105 106l-105 106l42 41l147 -147z" />
    <glyph glyph-name="ellipsis" unicode="&#x2026;" horiz-adv-x="690" 
d="M226 92q0 -21 -8 -39.5t-21.5 -32t-32 -21.5t-39.5 -8t-39.5 8t-32 21.5t-21.5 32t-8 39.5t8 39t21.5 32t32 22t39.5 8t39.5 -8t32 -22t21.5 -32t8 -39zM446 92q0 -21 -8 -39.5t-21.5 -32t-32 -21.5t-39.5 -8t-39.5 8t-32 21.5t-21.5 32t-8 39.5t8 39t21.5 32t32 22
t39.5 8t39.5 -8t32 -22t21.5 -32t8 -39zM666 92q0 -21 -8 -39.5t-21.5 -32t-32 -21.5t-39.5 -8t-39.5 8t-32 21.5t-21.5 32t-8 39.5t8 39t21.5 32t32 22t39.5 8t39.5 -8t32 -22t21.5 -32t8 -39z" />
    <glyph glyph-name="OE" unicode="&#x152;" horiz-adv-x="873" 
d="M769 0q-42 0 -81 12.5t-72 34.5q-45 -30 -97.5 -46t-112.5 -16q-78 0 -147.5 30t-121.5 82t-82.5 121.5t-30.5 147.5t30.5 147.5t82.5 121.5t121.5 82.5t147.5 30.5q69 0 129 -22t109 -61q22 28 54.5 44.5t70.5 16.5h80v-143h-80q-8 0 -12 -5t-4 -11t5 -10.5t11 -4.5h80
v-143h-96q-25 -3 -46.5 -14.5t-37.5 -29.5t-25 -40.5t-9 -47.5q0 -28 10.5 -52.5t28.5 -42.5t42.5 -28.5t52.5 -10.5h80v-143h-80zM605 500q-32 48 -84 77t-115 29q-49 0 -92.5 -19t-76 -52t-51.5 -76.5t-19 -92.5t19 -92.5t51.5 -76t76 -51.5t92.5 -19q65 0 115 29
q-13 28 -20.5 58.5t-7.5 62.5q0 69 30.5 127t81.5 96z" />
    <glyph glyph-name="oe" unicode="&#x153;" horiz-adv-x="732" 
d="M40 0v142h668v-142h-668zM459 385v-76h180v-143h-317q-60 0 -114.5 22.5t-95 61.5t-64.5 92t-24 115q0 60 23 112.5t63 92.5t92.5 63t112.5 23h324v-145h-180v-75h248v-143h-248zM315 603q-27 0 -53.5 -9t-47.5 -27t-34 -45.5t-13 -64.5q0 -38 13 -65.5t34 -46
t47.5 -27.5t53.5 -9v294z" />
    <glyph glyph-name="endash" unicode="&#x2013;" horiz-adv-x="548" 
d="M24 231v115h500v-115h-500z" />
    <glyph glyph-name="emdash" unicode="&#x2014;" horiz-adv-x="1048" 
d="M24 231v115h1000v-115h-1000z" />
    <glyph glyph-name="quotedblleft" unicode="&#x201c;" horiz-adv-x="360" 
d="M130 525l-106 193l110 46l62 -211zM270 525l-106 193l110 46l62 -211z" />
    <glyph glyph-name="quotedblright" unicode="&#x201d;" horiz-adv-x="360" 
d="M90 525l-66 28l62 211l110 -46zM230 525l-66 28l62 211l110 -46z" />
    <glyph glyph-name="quoteleft" unicode="&#x2018;" horiz-adv-x="220" 
d="M130 525l-106 193l110 46l62 -211z" />
    <glyph glyph-name="quoteright" unicode="&#x2019;" horiz-adv-x="220" 
d="M90 525l-66 28l62 211l110 -46z" />
    <glyph glyph-name="divide" unicode="&#xf7;" horiz-adv-x="600" 
d="M373 92q0 -28 -21 -50.5t-53 -22.5q-31 0 -51.5 21.5t-20.5 51.5q0 32 21.5 52t51.5 20q29 0 51 -21t22 -51zM24 248v100h552v-100h-552zM373 504q0 -28 -21 -50.5t-53 -22.5q-31 0 -51.5 21.5t-20.5 51.5q0 32 21.5 52.5t51.5 20.5q29 0 51 -21.5t22 -51.5z" />
    <glyph glyph-name="currency" unicode="&#xa4;" horiz-adv-x="537" 
d="M468 377h-237q-1 -4 -1 -7.5v-6.5v-4t1 -9h223l-45 -72h-163q13 -33 35.5 -61.5t51.5 -49t64 -32t73 -11.5v-143q-68 1 -129.5 23.5t-111 62.5t-84 94t-48.5 117h-73l45 72h19v27h-64l45 71h28q14 63 49 117.5t84.5 94.5t110.5 62.5t129 22.5v-142q-38 0 -73 -11.5
t-64.5 -32.5t-52 -49.5t-34.5 -61.5h267z" />
    <glyph glyph-name="guilsinglleft" unicode="&#x2039;" horiz-adv-x="237" 
d="M171 225l-147 148l147 147l42 -41l-105 -106l105 -106z" />
    <glyph glyph-name="guilsinglright" unicode="&#x203a;" horiz-adv-x="237" 
d="M66 225l-42 42l105 106l-105 106l42 41l147 -147z" />
    <glyph glyph-name="daggerdbl" unicode="&#x2021;" horiz-adv-x="579" 
d="M555 64q0 -78 -73 -78q-16 0 -32.5 6t-35 13.5t-40 15t-47.5 10.5q2 -27 9.5 -49t16 -41.5t15 -37.5t6.5 -37q0 -35 -22 -55t-62 -20t-62.5 20t-22.5 55q0 18 7.5 36.5t16 39t16 42.5t7.5 47q-26 -3 -48 -10.5t-40.5 -15t-35 -13.5t-32.5 -6q-72 0 -72 78q0 80 72 80
q14 0 30 -6t34 -13.5t39.5 -15t47.5 -11.5q-1 48 -15 88.5t-40 78.5q26 38 40 78.5t15 88.5q-26 -4 -47.5 -11.5t-39.5 -15t-34 -13.5t-30 -6q-72 0 -72 80q0 79 72 79q15 0 31.5 -6t35.5 -13.5t41 -15.5t48 -11q-3 26 -10.5 48t-16 42t-15 38.5t-6.5 37.5q0 35 22 55.5
t62 20.5t62.5 -20.5t22.5 -55.5q0 -22 -7 -41.5t-16 -39t-16 -40.5t-7 -45q26 3 47.5 11t40.5 15.5t35.5 13.5t31.5 6q73 0 73 -79q0 -80 -73 -80q-15 0 -30 6t-33 13.5t-39 15t-48 11.5q2 -48 15.5 -88.5t39.5 -78.5q-51 -72 -56 -167q26 4 47.5 11.5t39.5 15t33.5 13.5
t30.5 6q73 0 73 -80z" />
    <glyph glyph-name="quotesinglbase" unicode="&#x201a;" horiz-adv-x="220" 
d="M90 -125l-66 28l62 211l110 -46z" />
    <glyph glyph-name="quotedblbase" unicode="&#x201e;" horiz-adv-x="360" 
d="M90 -125l-66 28l62 211l110 -46zM230 -125l-66 28l62 211l110 -46z" />
    <glyph glyph-name="perthousand" unicode="&#x2030;" horiz-adv-x="1147" 
d="M347 512q0 -32 -8 -68.5t-27 -68t-50 -52.5t-76 -21q-43 0 -74 19.5t-50.5 50t-28.5 68t-9 72.5q0 46 12 85t33.5 67t51 44t65.5 16t65.5 -16t51 -44t33 -67t11.5 -85zM236 512q0 51 -15.5 75.5t-33.5 24.5q-19 0 -35 -24.5t-16 -75.5q0 -17 2.5 -34.5t8.5 -32t15.5 -24
t23.5 -9.5q13 0 22.5 9t15.5 23.5t9 32.5t3 35zM771 213q0 -32 -8 -68.5t-27 -68t-50 -52.5t-76 -21q-43 0 -74 19.5t-50.5 50t-28.5 68t-9 72.5q0 46 12 85t33.5 67t51 44t65.5 16t65.5 -16t51 -44t33 -67t11.5 -85zM660 213q0 51 -15.5 75.5t-33.5 24.5q-19 0 -35 -24.5
t-16 -75.5q0 -17 2.5 -34.5t8.5 -32t15.5 -24t23.5 -9.5q13 0 22.5 9t15.5 23.5t9 32.5t3 35zM322 0h-110l257 724h111zM1123 213q0 -32 -8 -68.5t-27 -68t-50 -52.5t-76 -21q-43 0 -74 19.5t-50.5 50t-28.5 68t-9 72.5q0 46 12 85t33.5 67t51 44t65.5 16t65.5 -16t51 -44
t33 -67t11.5 -85zM1012 213q0 51 -15.5 75.5t-33.5 24.5q-19 0 -35 -24.5t-16 -75.5q0 -17 2.5 -34.5t8.5 -32t15.5 -24t23.5 -9.5q13 0 22.5 9t15.5 23.5t9 32.5t3 35z" />
    <glyph glyph-name="tilde" unicode="&#x2dc;" horiz-adv-x="315" 
d="M250 813q-11 22 -31 22q-4 0 -9 -1t-9 -3q-25 -10 -42 -19t-42 -9q-28 0 -53.5 14.5t-39.5 41.5l57 29q6 -12 14 -16.5t17 -4.5q11 0 18 4q28 11 44 19.5t40 8.5q29 0 55 -14.5t39 -42.5z" />
    <glyph glyph-name="macron" unicode="&#xaf;" horiz-adv-x="286" 
d="M262 657h-238v50h238v-50z" />
    <glyph glyph-name="cedilla" unicode="&#xb8;" horiz-adv-x="225" 
d="M201 -136q0 -29 -10 -47t-26 -27.5t-36 -13t-40 -3.5h-49v64q7 0 19.5 -0.5t26.5 -0.5q19 0 35 5.5t16 23.5q0 17 -19 23.5t-42 6.5q-16 0 -29.5 -1t-22.5 -1l99 150l54 -35l-38 -57q27 -9 44.5 -32.5t17.5 -54.5z" />
    <glyph glyph-name="brokenbar" unicode="&#xa6;" horiz-adv-x="185" 
d="M24 -171v370h137v-370h-137zM24 329v370h137v-370h-137z" />
    <glyph glyph-name="Eth" unicode="&#xd0;" horiz-adv-x="515" 
d="M491 363q0 -75 -28.5 -141t-78 -115.5t-115 -78t-140.5 -28.5h-72v215h-33v62h33v448h72q73 0 139 -29t115.5 -78.5t78.5 -115.5t29 -139zM349 363q0 36 -11 69t-31 60t-47.5 47.5t-59.5 31.5v-294h42v-62h-42v-61q33 11 60.5 32t47 48.5t30.5 60.5t11 68z" />
    <glyph glyph-name="eth" unicode="&#xf0;" horiz-adv-x="515" 
d="M491 363q0 -75 -28.5 -141t-78 -115.5t-115 -78t-140.5 -28.5h-72v215h-33v62h33v448h72q73 0 139 -29t115.5 -78.5t78.5 -115.5t29 -139zM349 363q0 36 -11 69t-31 60t-47.5 47.5t-59.5 31.5v-294h42v-62h-42v-61q33 11 60.5 32t47 48.5t30.5 60.5t11 68z" />
    <glyph glyph-name="Yacute" unicode="&#xdd;" horiz-adv-x="580" 
d="M361 228v-228h-143v228l-194 498h153l113 -289l113 289h153zM253 753l-18 42l186 94l29 -71z" />
    <glyph glyph-name="yacute" unicode="&#xfd;" horiz-adv-x="580" 
d="M361 228v-228h-143v228l-194 497h153l113 -288l113 288h153zM250 751l-18 42l186 94l29 -71z" />
    <glyph glyph-name="Thorn" unicode="&#xde;" horiz-adv-x="486" 
d="M462 433q0 -35 -12 -74.5t-45 -81t-90.5 -83.5t-148.5 -82v-112h-142v726h142v-103h80q39 0 78 -11t69.5 -34t49.5 -59t19 -86zM320 433q0 16 -9.5 25.5t-24 15t-32.5 7t-35 1.5q-15 0 -28.5 -0.5t-24.5 -0.5v-212q21 11 48 27.5t50.5 37.5t39.5 46t16 53z" />
    <glyph glyph-name="thorn" unicode="&#xfe;" horiz-adv-x="486" 
d="M462 433q0 -35 -12 -74.5t-45 -81t-90.5 -83.5t-148.5 -82v-112h-142v726h142v-103h80q39 0 78 -11t69.5 -34t49.5 -59t19 -86zM320 433q0 16 -9.5 25.5t-24 15t-32.5 7t-35 1.5q-15 0 -28.5 -0.5t-24.5 -0.5v-212q21 11 48 27.5t50.5 37.5t39.5 46t16 53z" />
    <glyph glyph-name="multiply" unicode="&#xd7;" horiz-adv-x="605" 
d="M511 20l-208 209l-210 -209l-69 69l210 209l-210 209l69 70l210 -209l208 209l70 -70l-208 -209l208 -209z" />
    <glyph glyph-name="onesuperior" unicode="&#xb9;" horiz-adv-x="119" 
d="M24 407v314l71 50v-364h-71z" />
    <glyph glyph-name="twosuperior" unicode="&#xb2;" horiz-adv-x="288" 
d="M76 374l112 225q5 9 5 21q0 19 -14.5 33.5t-34.5 14.5q-24 0 -36.5 -15.5t-12.5 -34.5q0 -15 8.5 -28.5t25.5 -18.5l-32 -64q-38 15 -55.5 46.5t-17.5 67.5q0 22 7.5 43t22.5 37.5t37.5 27t52.5 10.5q27 0 49 -10.5t37.5 -27.5t24.5 -39t9 -44q0 -13 -2.5 -25t-9.5 -25
l-61 -123h71v-71h-186z" />
    <glyph glyph-name="threesuperior" unicode="&#xb3;" horiz-adv-x="275" 
d="M158 647q48 -19 70.5 -55t22.5 -75q0 -27 -10 -53t-30 -46.5t-49 -33.5t-66 -13q-24 0 -46 6v76q21 -10 49 -10q31 1 56.5 19t25.5 53q0 15 -7 28.5t-18.5 23.5t-27 16t-33.5 6h-71l62 81h-62v72h205z" />
    <glyph glyph-name="bullet" unicode="&#x2022;" horiz-adv-x="433" 
d="M409 332q0 -39 -15.5 -74t-41.5 -61.5t-61 -42t-75 -15.5q-39 0 -74 15t-61.5 41.5t-41.5 61.5t-15 75q0 39 15.5 74t41.5 61.5t61.5 41.5t74.5 15t74 -15t61.5 -41.5t41.5 -61.5t15 -74z" />
    <glyph glyph-name="degree" unicode="&#xb0;" horiz-adv-x="363" 
d="M339 561q0 -32 -12.5 -60.5t-34 -50t-50 -34t-61.5 -12.5t-61.5 12.5t-49.5 33.5t-33.5 49.5t-12.5 61.5t12.5 61.5t34 50t50.5 34t61 12.5t60.5 -12.5t50 -34t34 -50t12.5 -61.5zM256 562q0 30 -22 52t-53 22q-30 0 -51.5 -21.5t-21.5 -52.5t21.5 -53t52.5 -22
t52.5 22.5t21.5 52.5z" />
    <glyph glyph-name="Euro" unicode="&#x20ac;" horiz-adv-x="537" 
d="M468 377h-237q-1 -4 -1 -7.5v-6.5v-4t1 -9h223l-45 -72h-163q13 -33 35.5 -61.5t51.5 -49t64 -32t73 -11.5v-143q-68 1 -129.5 23.5t-111 62.5t-84 94t-48.5 117h-73l45 72h19v27h-64l45 71h28q14 63 49 117.5t84.5 94.5t110.5 62.5t129 22.5v-142q-38 0 -73 -11.5
t-64.5 -32.5t-52 -49.5t-34.5 -61.5h267z" />
    <glyph glyph-name="bracketleft" unicode="[" horiz-adv-x="280" 
d="M24 -161v916h232v-143h-90v-630h90v-143h-232z" />
    <glyph glyph-name="onequarter" unicode="&#xbc;" horiz-adv-x="708" 
d="M622 80v-80h-95v80h-266l199 406h106l-152 -310h113v219h95v-219h62v-96h-62zM24 239v421l96 65v-486h-96zM160 0h-107l356 725h107z" />
    <glyph glyph-name="onehalf" unicode="&#xbd;" horiz-adv-x="726" 
d="M449 0l151 301q6 13 6 27q0 26 -18.5 45.5t-47.5 19.5q-32 0 -48.5 -21t-16.5 -48q0 -20 11.5 -36.5t34.5 -23.5l-43 -86q-51 20 -74.5 61t-23.5 87q0 30 10.5 59t31 52t50 37t68.5 14q35 0 65 -13.5t51.5 -36t33.5 -52t12 -60.5q0 -33 -16 -67l-82 -164h95v-95h-250z
M24 239v421l96 65v-486h-96zM160 0h-107l356 725h107z" />
    <glyph glyph-name="threequarters" unicode="&#xbe;" horiz-adv-x="846" 
d="M204 595q64 -26 94.5 -74t30.5 -100q0 -36 -14 -70.5t-41 -62.5t-65.5 -45t-87.5 -17q-32 0 -62 9v100q30 -14 62 -14q21 0 41 6t36.5 18.5t26.5 30.5t10 42q0 21 -9.5 39t-25 31.5t-36.5 21t-44 7.5h-96l83 109h-83v96h276zM760 80v-80h-95v80h-266l199 406h106
l-152 -310h113v219h95v-219h62v-96h-62zM298 0h-107l356 725h107z" />
    <glyph glyph-name="florin" unicode="&#x192;" horiz-adv-x="889" 
d="M505 443q0 -11 -1 -16q10 2 17 2q12 0 24 -2.5t22 -8t17 -13.5t9 -20q11 5 26.5 7.5t29.5 2.5q35 0 62 -17.5t27 -52.5q0 -16 -10 -31q-5 -6 -10 -6q-11 0 -11 11q0 2 3 7q6 9 6 19q0 22 -16.5 34.5t-40.5 12.5q-26 0 -46 -7t-34.5 -17.5t-22 -22t-7.5 -21.5
q0 -11 7.5 -22t36.5 -11q15 0 33 5q1 1 3 1q11 0 11 -12q-2 -18 -11.5 -33.5t-24.5 -26.5q-30 -24 -72 -24q-25 0 -48 9t-40 28q-16 -19 -39.5 -28t-47.5 -9q-41 0 -73 24q-31 24 -36 60q0 12 10 12q3 0 4 -1q18 -5 33 -5q31 0 39 11t8 22q0 10 -8 21.5t-23 22t-36 17.5
t-47 7q-23 0 -39.5 -12.5t-16.5 -34.5q0 -9 7 -19q2 -3 2 -7q0 -11 -11 -11q-6 0 -9 6q-10 15 -10 31q0 35 27 52.5t62 17.5q14 0 29 -2.5t26 -7.5q2 12 9.5 20t17.5 13.5t21.5 8t21.5 2.5q5 0 9.5 -0.5t9.5 -1.5q-1 5 -1 9.5v9.5q0 29 6 47q5 19 12 19q8 0 13 -19
q2 -6 3 -12t2 -14l-20 -24h20v-15.5t-2 -14.5q19 -13 19 -33q0 -18 -10 -27.5t-22 -14.5q-12 -6 -22.5 -12.5t-10.5 -14.5q0 -10 7.5 -17t18.5 -11t23.5 -6t23.5 -2q10 0 23 2t23.5 6t18 11t7.5 17q0 8 -9 14.5t-23 12.5q-12 5 -21.5 13.5t-9.5 28.5t19 33q-3 15 -3 33
q0 27 5 47q6 19 13 19t13 -19q2 -6 2.5 -12.5t1.5 -14.5l-20 -23h21zM523 415q-26 0 -41 -12q-16 -10 -16 -23q0 -14 16 -24q16 -11 41 -11t41 11q15 10 15 24q0 13 -15 23q-15 12 -41 12zM365 415q-25 0 -41 -12q-15 -10 -15 -23q0 -14 15 -24q17 -11 41 -11q25 0 42 11
q15 10 15 24q0 13 -15 23q-17 12 -42 12zM518 276q-15 -13 -36 -18t-38 -5t-38 5t-35 18q-34 -26 -76 -26q-5 0 -10.5 0.5t-11.5 1.5q11 -25 34.5 -37.5t49.5 -12.5q23 0 44.5 10t33.5 30q2 5 9 5t10 -5q11 -20 33 -30t45 -10q25 0 49 12.5t34 37.5q-5 -1 -10.5 -1.5
t-11.5 -0.5q-20 0 -39.5 6.5t-35.5 19.5zM362 575q-28 -6 -52 -15.5t-41.5 -23.5t-27.5 -33t-10 -44q0 -8 1.5 -15.5t1.5 -17.5q0 -11 -11 -11q-9 0 -10 10q-3 18 -3 34q0 37 13.5 70.5t39.5 59.5q-20 11 -35.5 30t-20.5 45q0 11 10 11t11 -10q8 -34 38.5 -53t63.5 -19
q32 0 60.5 16.5t39.5 48.5q1 4 4 5.5t6 1.5q9 0 10 -7q11 -32 39.5 -48.5t60.5 -16.5q16 0 33 5t31 14t24 22.5t14 30.5q1 10 11 10t10 -14q-5 -22 -18.5 -39.5t-32.5 -29.5q26 -27 41 -61t15 -72q0 -16 -3 -34q-1 -5 -4 -7.5t-6 -2.5q-11 0 -11 14q3 15 3 30q0 53 -32 79
t-81 35q-31 5 -59 17.5t-45 39.5q-13 -21 -33.5 -35t-44.5 -20zM770 102q-27 -28 -63.5 -44t-76.5 -16q-41 -23 -92 -23h-12q-38 -19 -82 -19q-42 0 -82 19h-12q-49 0 -92 23q-40 0 -76.5 16t-62.5 44q-38 27 -66.5 66t-28.5 89q0 37 16.5 68t42.5 57q-13 24 -20 50.5
t-7 54.5q0 60 30.5 112.5t84.5 91.5q53 38 123 60.5t150 22.5t150 -22.5t123 -60.5q54 -39 85 -91.5t31 -112.5q0 -55 -28 -105q26 -26 43 -57t17 -68q0 -50 -28.5 -89t-66.5 -66zM666 68q25 5 47.5 17t39 30.5t26.5 42t10 50.5q0 45 -27 80q-3 4 -3 7q0 11 11 11q5 0 9 -5
q15 -20 23.5 -44t8.5 -49q0 -13 -2 -24.5t-5 -22.5q17 20 28 44t11 52q0 34 -17 63t-41 52q-3 1 -3 7q0 4 1 5q28 50 28 103q0 55 -28.5 103t-78.5 84t-116.5 57.5t-143.5 21.5t-143.5 -21.5t-116.5 -57.5t-78.5 -84t-28.5 -103q0 -53 28 -103q1 -1 1 -4q0 -6 -2 -8
q-25 -23 -42 -52t-17 -63q0 -28 11.5 -52t28.5 -44q-7 20 -7 47q0 25 8 49t24 44q2 5 9 5q10 0 10 -11q0 -1 -2 -7q-28 -36 -28 -80q0 -27 10 -50.5t27 -42t39.5 -30.5t47.5 -17q-24 22 -39 51.5t-15 64.5q0 54 36 98q5 5 9 5q10 0 10 -11q0 -3 -2 -7q-31 -37 -31 -85
q0 -29 11 -53t29.5 -42.5t42.5 -30.5t51 -16q-28 22 -44.5 53.5t-16.5 69.5q0 12 10 12q11 0 11 -12q0 -32 13.5 -58.5t36 -45.5t51 -29.5t58.5 -10.5t59 10.5t51 29.5t35.5 45.5t13.5 58.5q0 6 3.5 9t8.5 3q10 0 10 -12q0 -38 -17 -69.5t-45 -53.5q27 4 51 16t43 30.5
t30 42.5t11 53q0 23 -8.5 45t-22.5 40q-3 3 -3 7q0 11 11 11q3 0 8 -5q36 -44 36 -98q0 -35 -14.5 -64.5t-38.5 -51.5z" />
    <glyph glyph-name="periodcentered" unicode="&#xb7;" horiz-adv-x="293" 
d="M269 316q0 -26 -9.5 -48.5t-26 -39t-38.5 -26t-48 -9.5t-48.5 9.5t-39 26t-26 39t-9.5 48.5t9.5 48.5t26 39t39 26t48.5 9.5t48 -9.5t38.5 -26t26 -39t9.5 -48.5z" />
    <glyph glyph-name="circumflex" unicode="&#x2c6;" horiz-adv-x="310" 
d="M250 733l-93 76l-92 -76l-41 50l133 108l134 -108z" />
    <glyph glyph-name="Agrave" unicode="&#xc0;" 
d="M373 0v130h-207v-130h-142v327q0 81 31.5 153.5t86 127t127 86t153.5 31.5l93 -7v-718h-142zM373 577q-45 -8 -83 -31t-65.5 -56.5t-43 -75.5t-15.5 -87v-55h207v305zM404 766l-197 65l29 71l186 -94z" />
    <glyph glyph-name="Aacute" unicode="&#xc1;" 
d="M373 0v130h-207v-130h-142v327q0 81 31.5 153.5t86 127t127 86t153.5 31.5l93 -7v-718h-142zM373 577q-45 -8 -83 -31t-65.5 -56.5t-43 -75.5t-15.5 -87v-55h207v305zM295 759l-18 42l186 94l29 -71z" />
    <glyph glyph-name="Acircumflex" unicode="&#xc2;" 
d="M373 0v130h-207v-130h-142v327q0 81 31.5 153.5t86 127t127 86t153.5 31.5l93 -7v-718h-142zM373 577q-45 -8 -83 -31t-65.5 -56.5t-43 -75.5t-15.5 -87v-55h207v305zM452 729l-93 76l-92 -76l-41 50l133 108l134 -108z" />
    <glyph glyph-name="Atilde" unicode="&#xc3;" 
d="M373 0v130h-207v-130h-142v327q0 81 31.5 153.5t86 127t127 86t153.5 31.5l93 -7v-718h-142zM373 577q-45 -8 -83 -31t-65.5 -56.5t-43 -75.5t-15.5 -87v-55h207v305zM454 758q-11 22 -31 22q-4 0 -9 -1t-9 -3q-25 -10 -42 -19t-42 -9q-28 0 -53.5 14.5t-39.5 41.5l57 29
q6 -12 14 -16.5t17 -4.5q11 0 18 4q28 11 44 19.5t40 8.5q29 0 55 -14.5t39 -42.5z" />
    <glyph glyph-name="Adieresis" unicode="&#xc4;" 
d="M373 0v130h-207v-130h-142v327q0 81 31.5 153.5t86 127t127 86t153.5 31.5l93 -7v-718h-142zM373 577q-45 -8 -83 -31t-65.5 -56.5t-43 -75.5t-15.5 -87v-55h207v305zM291 854q20 0 34.5 -14.5t14.5 -35.5q0 -20 -14.5 -34t-34.5 -14q-21 0 -35 14.5t-14 34.5t15 34.5
t34 14.5zM417 854q20 0 34.5 -14.5t14.5 -35.5q0 -20 -14.5 -34t-34.5 -14q-21 0 -34.5 14.5t-13.5 34.5t14.5 34.5t33.5 14.5z" />
    <glyph glyph-name="Aring" unicode="&#xc5;" 
d="M452 820q0 -31 -21.5 -53t-52.5 -22t-53 22t-22 53t22 52.5t53 21.5t52.5 -21.5t21.5 -52.5zM417 820q0 16 -11.5 27.5t-27.5 11.5t-28 -11.5t-12 -27.5t12 -28t28 -12t27.5 12t11.5 28zM373 0v130h-207v-130h-142v327q0 81 31.5 153.5t86 127t127 86t153.5 31.5l93 -7
v-718h-142zM373 577q-45 -8 -83 -31t-65.5 -56.5t-43 -75.5t-15.5 -87v-55h207v305z" />
    <glyph glyph-name="Ccedilla" unicode="&#xc7;" horiz-adv-x="648" 
d="M624 50q-97 -68 -218 -68q-79 0 -148.5 30t-121.5 82t-82 121.5t-30 147.5t30.5 147.5t82.5 121.5t121.5 82.5t147.5 30.5q57 0 109 -16t100 -47l-78 -119q-29 20 -62.5 29.5t-68.5 9.5q-49 0 -92.5 -19t-76 -51.5t-51.5 -76t-19 -92.5q0 -50 19 -93.5t51 -76t75.5 -51.5
t93.5 -19q75 0 136 43l82 -116v0zM412 -136q0 -29 -10 -47t-26 -27.5t-36 -13t-40 -3.5h-49v64q7 0 19.5 -0.5t26.5 -0.5q19 0 35 5.5t16 23.5q0 17 -19 23.5t-42 6.5q-16 0 -29.5 -1t-22.5 -1l99 150l54 -35l-38 -57q27 -9 44.5 -32.5t17.5 -54.5z" />
    <glyph glyph-name="Egrave" unicode="&#xc8;" horiz-adv-x="404" 
d="M301 -1q-57 0 -107.5 22t-88 60t-59.5 88.5t-22 106.5q0 75 35.5 136t93.5 98q-5 14 -8 28t-3 29q0 32 12.5 61t34.5 50.5t50.5 34t61.5 12.5h79v-143h-79q-8 0 -12 -5t-4 -11t4 -10.5t12 -4.5h79v-143h-96q-25 -3 -46.5 -14.5t-37.5 -29.5t-25 -40.5t-9 -47.5
q0 -27 10.5 -51.5t29 -43t43 -29t52.5 -10.5h79v-143h-79zM343 741l-197 65l29 71l186 -94z" />
    <glyph glyph-name="Eacute" unicode="&#xc9;" horiz-adv-x="404" 
d="M301 -1q-57 0 -107.5 22t-88 60t-59.5 88.5t-22 106.5q0 75 35.5 136t93.5 98q-5 14 -8 28t-3 29q0 32 12.5 61t34.5 50.5t50.5 34t61.5 12.5h79v-143h-79q-8 0 -12 -5t-4 -11t4 -10.5t12 -4.5h79v-143h-96q-25 -3 -46.5 -14.5t-37.5 -29.5t-25 -40.5t-9 -47.5
q0 -27 10.5 -51.5t29 -43t43 -29t52.5 -10.5h79v-143h-79zM237 747l-18 42l186 94l29 -71z" />
    <glyph glyph-name="Ecircumflex" unicode="&#xca;" horiz-adv-x="404" 
d="M301 -1q-57 0 -107.5 22t-88 60t-59.5 88.5t-22 106.5q0 75 35.5 136t93.5 98q-5 14 -8 28t-3 29q0 32 12.5 61t34.5 50.5t50.5 34t61.5 12.5h79v-143h-79q-8 0 -12 -5t-4 -11t4 -10.5t12 -4.5h79v-143h-96q-25 -3 -46.5 -14.5t-37.5 -29.5t-25 -40.5t-9 -47.5
q0 -27 10.5 -51.5t29 -43t43 -29t52.5 -10.5h79v-143h-79zM376 734l-93 76l-92 -76l-41 50l133 108l134 -108z" />
    <glyph glyph-name="Edieresis" unicode="&#xcb;" horiz-adv-x="404" 
d="M301 -1q-57 0 -107.5 22t-88 60t-59.5 88.5t-22 106.5q0 75 35.5 136t93.5 98q-5 14 -8 28t-3 29q0 32 12.5 61t34.5 50.5t50.5 34t61.5 12.5h79v-143h-79q-8 0 -12 -5t-4 -11t4 -10.5t12 -4.5h79v-143h-96q-25 -3 -46.5 -14.5t-37.5 -29.5t-25 -40.5t-9 -47.5
q0 -27 10.5 -51.5t29 -43t43 -29t52.5 -10.5h79v-143h-79zM216 854q20 0 34.5 -14.5t14.5 -35.5q0 -20 -14.5 -34t-34.5 -14q-21 0 -35 14.5t-14 34.5t15 34.5t34 14.5zM342 854q20 0 34.5 -14.5t14.5 -35.5q0 -20 -14.5 -34t-34.5 -14q-21 0 -34.5 14.5t-13.5 34.5
t14.5 34.5t33.5 14.5z" />
    <glyph glyph-name="Igrave" unicode="&#xcc;" horiz-adv-x="191" 
d="M24 0v725h143v-725h-143zM186 750l-197 65l29 71l186 -94z" />
    <glyph glyph-name="Iacute" unicode="&#xcd;" horiz-adv-x="191" 
d="M24 0v725h143v-725h-143zM7 760l-18 42l186 94l29 -71z" />
    <glyph glyph-name="Icircumflex" unicode="&#xce;" horiz-adv-x="191" 
d="M24 0v725h143v-725h-143zM189 743l-93 76l-92 -76l-41 50l133 108l134 -108z" />
    <glyph glyph-name="Idieresis" unicode="&#xcf;" horiz-adv-x="191" 
d="M24 0v725h143v-725h-143zM34 863q20 0 34.5 -14.5t14.5 -35.5q0 -20 -14.5 -34t-34.5 -14q-21 0 -35 14.5t-14 34.5t15 34.5t34 14.5zM160 863q20 0 34.5 -14.5t14.5 -35.5q0 -20 -14.5 -34t-34.5 -14q-21 0 -34.5 14.5t-13.5 34.5t14.5 34.5t33.5 14.5z" />
    <glyph glyph-name="Ntilde" unicode="&#xd1;" horiz-adv-x="520" 
d="M353 0v335q0 42 -14 81t-38.5 71t-59 54.5t-75.5 33.5v-575h-142v725q45 0 87.5 -1.5t83 -10t80 -26.5t78.5 -51v89h143v-725h-143zM344 771q-11 22 -31 22q-4 0 -9 -1t-9 -3q-25 -10 -42 -19t-42 -9q-28 0 -53.5 14.5t-39.5 41.5l57 29q6 -12 14 -16.5t17 -4.5
q11 0 18 4q28 11 44 19.5t40 8.5q29 0 55 -14.5t39 -42.5z" />
    <glyph glyph-name="Ograve" unicode="&#xd2;" horiz-adv-x="812" 
d="M788 365q0 -78 -30.5 -147.5t-82.5 -121.5t-121.5 -82t-147.5 -30t-147.5 30t-121.5 82t-82.5 121.5t-30.5 147.5t30.5 147.5t82.5 121.5t121.5 82.5t147.5 30.5t147.5 -30.5t121.5 -82.5t82.5 -121.5t30.5 -147.5zM646 365q0 49 -19 92.5t-52 76.5t-76.5 52t-92.5 19
t-92.5 -19t-76 -52t-51.5 -76.5t-19 -92.5t19 -92.5t51.5 -76t76 -51.5t92.5 -19t92.5 19t76.5 51.5t52 76t19 92.5zM466 779l-197 65l29 71l186 -94z" />
    <glyph glyph-name="Oacute" unicode="&#xd3;" horiz-adv-x="812" 
d="M788 365q0 -78 -30.5 -147.5t-82.5 -121.5t-121.5 -82t-147.5 -30t-147.5 30t-121.5 82t-82.5 121.5t-30.5 147.5t30.5 147.5t82.5 121.5t121.5 82.5t147.5 30.5t147.5 -30.5t121.5 -82.5t82.5 -121.5t30.5 -147.5zM646 365q0 49 -19 92.5t-52 76.5t-76.5 52t-92.5 19
t-92.5 -19t-76 -52t-51.5 -76.5t-19 -92.5t19 -92.5t51.5 -76t76 -51.5t92.5 -19t92.5 19t76.5 51.5t52 76t19 92.5zM352 779l-18 42l186 94l29 -71z" />
    <glyph glyph-name="Ocircumflex" unicode="&#xd4;" horiz-adv-x="812" 
d="M788 365q0 -78 -30.5 -147.5t-82.5 -121.5t-121.5 -82t-147.5 -30t-147.5 30t-121.5 82t-82.5 121.5t-30.5 147.5t30.5 147.5t82.5 121.5t121.5 82.5t147.5 30.5t147.5 -30.5t121.5 -82.5t82.5 -121.5t30.5 -147.5zM646 365q0 49 -19 92.5t-52 76.5t-76.5 52t-92.5 19
t-92.5 -19t-76 -52t-51.5 -76.5t-19 -92.5t19 -92.5t51.5 -76t76 -51.5t92.5 -19t92.5 19t76.5 51.5t52 76t19 92.5zM498 756l-93 76l-92 -76l-41 50l133 108l134 -108z" />
    <glyph glyph-name="Otilde" unicode="&#xd5;" horiz-adv-x="812" 
d="M788 365q0 -78 -30.5 -147.5t-82.5 -121.5t-121.5 -82t-147.5 -30t-147.5 30t-121.5 82t-82.5 121.5t-30.5 147.5t30.5 147.5t82.5 121.5t121.5 82.5t147.5 30.5t147.5 -30.5t121.5 -82.5t82.5 -121.5t30.5 -147.5zM646 365q0 49 -19 92.5t-52 76.5t-76.5 52t-92.5 19
t-92.5 -19t-76 -52t-51.5 -76.5t-19 -92.5t19 -92.5t51.5 -76t76 -51.5t92.5 -19t92.5 19t76.5 51.5t52 76t19 92.5zM484 791q-11 22 -31 22q-4 0 -9 -1t-9 -3q-25 -10 -42 -19t-42 -9q-28 0 -53.5 14.5t-39.5 41.5l57 29q6 -12 14 -16.5t17 -4.5q11 0 18 4q28 11 44 19.5
t40 8.5q29 0 55 -14.5t39 -42.5z" />
    <glyph glyph-name="Odieresis" unicode="&#xd6;" horiz-adv-x="812" 
d="M788 365q0 -78 -30.5 -147.5t-82.5 -121.5t-121.5 -82t-147.5 -30t-147.5 30t-121.5 82t-82.5 121.5t-30.5 147.5t30.5 147.5t82.5 121.5t121.5 82.5t147.5 30.5t147.5 -30.5t121.5 -82.5t82.5 -121.5t30.5 -147.5zM646 365q0 49 -19 92.5t-52 76.5t-76.5 52t-92.5 19
t-92.5 -19t-76 -52t-51.5 -76.5t-19 -92.5t19 -92.5t51.5 -76t76 -51.5t92.5 -19t92.5 19t76.5 51.5t52 76t19 92.5zM343 883q20 0 34.5 -14.5t14.5 -35.5q0 -20 -14.5 -34t-34.5 -14q-21 0 -35 14.5t-14 34.5t15 34.5t34 14.5zM469 883q20 0 34.5 -14.5t14.5 -35.5
q0 -20 -14.5 -34t-34.5 -14q-21 0 -34.5 14.5t-13.5 34.5t14.5 34.5t33.5 14.5z" />
    <glyph glyph-name="Scaron" unicode="&#x160;" horiz-adv-x="287" 
d="M174 792l-133 108l41 50l92 -76l93 76l41 -50zM262 665q-41 -20 -67.5 -59t-26.5 -89q0 -36 14 -71t32 -68q5 -9 13 -28.5t16 -43.5t14 -50t6 -48q0 -43 -12.5 -85t-35.5 -78.5t-56 -66.5t-74 -50l-61 127q45 22 70.5 63.5t25.5 89.5q0 9 -2 19.5t-8.5 28.5t-20 48
t-35.5 78q-16 33 -23 65t-7 67q0 43 12 84.5t35 78.5t56 67t74 50l61 -129v0z" />
    <glyph glyph-name="Ugrave" unicode="&#xd9;" horiz-adv-x="532" 
d="M366 726h142v-502q0 -50 -19.5 -94t-52.5 -77t-77 -52t-93 -19q-50 0 -94 19t-77 52t-52 77t-19 94v502h143v-502q0 -42 28.5 -71t70.5 -29t71 29t29 71v502zM355 758l-197 65l29 71l186 -94z" />
    <glyph glyph-name="Uacute" unicode="&#xda;" horiz-adv-x="532" 
d="M366 726h142v-502q0 -50 -19.5 -94t-52.5 -77t-77 -52t-93 -19q-50 0 -94 19t-77 52t-52 77t-19 94v502h143v-502q0 -42 28.5 -71t70.5 -29t71 29t29 71v502zM176 759l-18 42l186 94l29 -71z" />
    <glyph glyph-name="Ucircumflex" unicode="&#xdb;" horiz-adv-x="532" 
d="M366 726h142v-502q0 -50 -19.5 -94t-52.5 -77t-77 -52t-93 -19q-50 0 -94 19t-77 52t-52 77t-19 94v502h143v-502q0 -42 28.5 -71t70.5 -29t71 29t29 71v502zM358 742l-93 76l-92 -76l-41 50l133 108l134 -108z" />
    <glyph glyph-name="Udieresis" unicode="&#xdc;" horiz-adv-x="532" 
d="M366 726h142v-502q0 -50 -19.5 -94t-52.5 -77t-77 -52t-93 -19q-50 0 -94 19t-77 52t-52 77t-19 94v502h143v-502q0 -42 28.5 -71t70.5 -29t71 29t29 71v502zM203 865q20 0 34.5 -14.5t14.5 -35.5q0 -20 -14.5 -34t-34.5 -14q-21 0 -35 14.5t-14 34.5t15 34.5t34 14.5z
M329 865q20 0 34.5 -14.5t14.5 -35.5q0 -20 -14.5 -34t-34.5 -14q-21 0 -34.5 14.5t-13.5 34.5t14.5 34.5t33.5 14.5z" />
    <glyph glyph-name="Ydieresis" unicode="&#x178;" horiz-adv-x="580" 
d="M361 228v-228h-143v228l-194 498h153l113 -289l113 289h153zM227 883q20 0 34.5 -14.5t14.5 -35.5q0 -20 -14.5 -34t-34.5 -14q-21 0 -35 14.5t-14 34.5t15 34.5t34 14.5zM353 883q20 0 34.5 -14.5t14.5 -35.5q0 -20 -14.5 -34t-34.5 -14q-21 0 -34.5 14.5t-13.5 34.5
t14.5 34.5t33.5 14.5z" />
    <glyph glyph-name="Zcaron" unicode="&#x17d;" horiz-adv-x="538" 
d="M329 741l-133 108l41 50l92 -76l93 76l41 -50zM483 143v-143h-459l268 583h-129v143h351l-267 -583h236z" />
    <glyph glyph-name="agrave" unicode="&#xe0;" 
d="M373 0v130h-207v-130h-142v725h93q81 0 153.5 -31.5t127 -86t86 -127t31.5 -153.5v-327h-142zM373 327q0 45 -16 86.5t-43.5 75t-65.5 57t-82 31.5v-305h207v55zM261 753l-197 65l29 71l186 -94z" />
    <glyph glyph-name="aacute" unicode="&#xe1;" 
d="M373 0v130h-207v-130h-142v725h93q81 0 153.5 -31.5t127 -86t86 -127t31.5 -153.5v-327h-142zM373 327q0 45 -16 86.5t-43.5 75t-65.5 57t-82 31.5v-305h207v55zM107 769l-18 42l186 94l29 -71z" />
    <glyph glyph-name="acircumflex" unicode="&#xe2;" 
d="M373 0v130h-207v-130h-142v725h93q81 0 153.5 -31.5t127 -86t86 -127t31.5 -153.5v-327h-142zM373 327q0 45 -16 86.5t-43.5 75t-65.5 57t-82 31.5v-305h207v55zM264 753l-93 76l-92 -76l-41 50l133 108l134 -108z" />
    <glyph glyph-name="atilde" unicode="&#xe3;" 
d="M373 0v130h-207v-130h-142v725h93q81 0 153.5 -31.5t127 -86t86 -127t31.5 -153.5v-327h-142zM373 327q0 45 -16 86.5t-43.5 75t-65.5 57t-82 31.5v-305h207v55zM265 774q-11 22 -31 22q-4 0 -9 -1t-9 -3q-25 -10 -42 -19t-42 -9q-28 0 -53.5 14.5t-39.5 41.5l57 29
q6 -12 14 -16.5t17 -4.5q11 0 18 4q28 11 44 19.5t40 8.5q29 0 55 -14.5t39 -42.5z" />
    <glyph glyph-name="adieresis" unicode="&#xe4;" 
d="M373 0v130h-207v-130h-142v725h93q81 0 153.5 -31.5t127 -86t86 -127t31.5 -153.5v-327h-142zM373 327q0 45 -16 86.5t-43.5 75t-65.5 57t-82 31.5v-305h207v55zM134 863q20 0 34.5 -14.5t14.5 -35.5q0 -20 -14.5 -34t-34.5 -14q-21 0 -35 14.5t-14 34.5t15 34.5t34 14.5
zM260 863q20 0 34.5 -14.5t14.5 -35.5q0 -20 -14.5 -34t-34.5 -14q-21 0 -34.5 14.5t-13.5 34.5t14.5 34.5t33.5 14.5z" />
    <glyph glyph-name="aring" unicode="&#xe5;" 
d="M259 840q0 -31 -21.5 -53t-52.5 -22t-53 22t-22 53t22 52.5t53 21.5t52.5 -21.5t21.5 -52.5zM224 840q0 16 -11.5 27.5t-27.5 11.5t-28 -11.5t-12 -27.5t12 -28t28 -12t27.5 12t11.5 28zM373 0v130h-207v-130h-142v725h93q81 0 153.5 -31.5t127 -86t86 -127t31.5 -153.5
v-327h-142zM373 327q0 45 -16 86.5t-43.5 75t-65.5 57t-82 31.5v-305h207v55z" />
    <glyph glyph-name="ccedilla" unicode="&#xe7;" horiz-adv-x="430" 
d="M406 -19q-78 1 -147.5 31.5t-121.5 82t-82.5 121t-30.5 147.5t30.5 147.5t82.5 121.5t121.5 82.5t147.5 30.5v-142q-49 0 -92.5 -19t-76 -52t-51.5 -76.5t-19 -92.5t19 -92.5t51.5 -76t76 -51.5t92.5 -19v-143v0zM319 -108q0 -29 -10 -47t-26 -27.5t-36 -13t-40 -3.5h-49
v64q7 0 19.5 -0.5t26.5 -0.5q19 0 35 5.5t16 23.5q0 17 -19 23.5t-42 6.5q-16 0 -29.5 -1t-22.5 -1l99 150l54 -35l-38 -57q27 -9 44.5 -32.5t17.5 -54.5z" />
    <glyph glyph-name="egrave" unicode="&#xe8;" horiz-adv-x="404" 
d="M301 0q-32 0 -61 12.5t-51 34t-34.5 50t-12.5 61.5q0 30 11 57q-58 37 -93.5 98t-35.5 136q0 57 22 107t59.5 87.5t88 59.5t107.5 22h79v-142h-79q-27 0 -51.5 -10.5t-43 -29t-29.5 -43t-11 -51.5q0 -26 9 -50t25 -42.5t37.5 -29.5t46.5 -11h96v-142h-80q-4 0 -10 -2.5
t-6 -13.5q0 -6 5 -11t12 -5h79v-142h-79zM327 749l-197 65l29 71l186 -94z" />
    <glyph glyph-name="eacute" unicode="&#xe9;" horiz-adv-x="404" 
d="M301 0q-32 0 -61 12.5t-51 34t-34.5 50t-12.5 61.5q0 30 11 57q-58 37 -93.5 98t-35.5 136q0 57 22 107t59.5 87.5t88 59.5t107.5 22h79v-142h-79q-27 0 -51.5 -10.5t-43 -29t-29.5 -43t-11 -51.5q0 -26 9 -50t25 -42.5t37.5 -29.5t46.5 -11h96v-142h-80q-4 0 -10 -2.5
t-6 -13.5q0 -6 5 -11t12 -5h79v-142h-79zM181 752l-18 42l186 94l29 -71z" />
    <glyph glyph-name="ecircumflex" unicode="&#xea;" horiz-adv-x="404" 
d="M301 0q-32 0 -61 12.5t-51 34t-34.5 50t-12.5 61.5q0 30 11 57q-58 37 -93.5 98t-35.5 136q0 57 22 107t59.5 87.5t88 59.5t107.5 22h79v-142h-79q-27 0 -51.5 -10.5t-43 -29t-29.5 -43t-11 -51.5q0 -26 9 -50t25 -42.5t37.5 -29.5t46.5 -11h96v-142h-80q-4 0 -10 -2.5
t-6 -13.5q0 -6 5 -11t12 -5h79v-142h-79zM354 748l-93 76l-92 -76l-41 50l133 108l134 -108z" />
    <glyph glyph-name="edieresis" unicode="&#xeb;" horiz-adv-x="404" 
d="M301 0q-32 0 -61 12.5t-51 34t-34.5 50t-12.5 61.5q0 30 11 57q-58 37 -93.5 98t-35.5 136q0 57 22 107t59.5 87.5t88 59.5t107.5 22h79v-142h-79q-27 0 -51.5 -10.5t-43 -29t-29.5 -43t-11 -51.5q0 -26 9 -50t25 -42.5t37.5 -29.5t46.5 -11h96v-142h-80q-4 0 -10 -2.5
t-6 -13.5q0 -6 5 -11t12 -5h79v-142h-79zM198 849q20 0 34.5 -14.5t14.5 -35.5q0 -20 -14.5 -34t-34.5 -14q-21 0 -35 14.5t-14 34.5t15 34.5t34 14.5zM324 849q20 0 34.5 -14.5t14.5 -35.5q0 -20 -14.5 -34t-34.5 -14q-21 0 -34.5 14.5t-13.5 34.5t14.5 34.5t33.5 14.5z
" />
    <glyph glyph-name="igrave" unicode="&#xec;" horiz-adv-x="191" 
d="M24 0v725h143v-725h-143zM186 762l-197 65l29 71l186 -94z" />
    <glyph glyph-name="iacute" unicode="&#xed;" horiz-adv-x="191" 
d="M24 0v725h143v-725h-143zM7 758l-18 42l186 94l29 -71z" />
    <glyph glyph-name="icircumflex" unicode="&#xee;" horiz-adv-x="191" 
d="M24 0v725h143v-725h-143zM189 743l-93 76l-92 -76l-41 50l133 108l134 -108z" />
    <glyph glyph-name="idieresis" unicode="&#xef;" horiz-adv-x="191" 
d="M24 0v725h143v-725h-143zM34 856q20 0 34.5 -14.5t14.5 -35.5q0 -20 -14.5 -34t-34.5 -14q-21 0 -35 14.5t-14 34.5t15 34.5t34 14.5zM160 856q20 0 34.5 -14.5t14.5 -35.5q0 -20 -14.5 -34t-34.5 -14q-21 0 -34.5 14.5t-13.5 34.5t14.5 34.5t33.5 14.5z" />
    <glyph glyph-name="ntilde" unicode="&#xf1;" horiz-adv-x="520" 
d="M353 0v335q0 42 -14 81t-38.5 71t-59 54.5t-75.5 33.5v-575h-142v725q45 0 87.5 -1.5t83 -10t80 -26.5t78.5 -51v89h143v-725h-143zM344 772q-11 22 -31 22q-4 0 -9 -1t-9 -3q-25 -10 -42 -19t-42 -9q-28 0 -53.5 14.5t-39.5 41.5l57 29q6 -12 14 -16.5t17 -4.5
q11 0 18 4q28 11 44 19.5t40 8.5q29 0 55 -14.5t39 -42.5z" />
    <glyph glyph-name="ograve" unicode="&#xf2;" horiz-adv-x="630" 
d="M40 0v142h551v-142h-551zM606 457q0 -60 -23 -113t-62.5 -92.5t-92.5 -62.5t-113 -23t-113 23t-92.5 62.5t-62.5 92.5t-23 113t23 112.5t63 92.5t92.5 63t112.5 23q59 0 112 -23t92.5 -63t63 -92.5t23.5 -112.5zM464 457q0 37 -13 64.5t-34 45.5t-47.5 27t-54.5 9
q-26 0 -52.5 -9t-47.5 -27t-34.5 -45.5t-13.5 -64.5q0 -38 13 -65.5t34 -46t48 -27.5t54 -9t53.5 9t47.5 27.5t34 46t13 65.5zM385 771l-197 65l29 71l186 -94z" />
    <glyph glyph-name="oacute" unicode="&#xf3;" horiz-adv-x="630" 
d="M40 0v142h551v-142h-551zM606 457q0 -60 -23 -113t-62.5 -92.5t-92.5 -62.5t-113 -23t-113 23t-92.5 62.5t-62.5 92.5t-23 113t23 112.5t63 92.5t92.5 63t112.5 23q59 0 112 -23t92.5 -63t63 -92.5t23.5 -112.5zM464 457q0 37 -13 64.5t-34 45.5t-47.5 27t-54.5 9
q-26 0 -52.5 -9t-47.5 -27t-34.5 -45.5t-13.5 -64.5q0 -38 13 -65.5t34 -46t48 -27.5t54 -9t53.5 9t47.5 27.5t34 46t13 65.5zM266 778l-18 42l186 94l29 -71z" />
    <glyph glyph-name="ocircumflex" unicode="&#xf4;" horiz-adv-x="630" 
d="M40 0v142h551v-142h-551zM606 457q0 -60 -23 -113t-62.5 -92.5t-92.5 -62.5t-113 -23t-113 23t-92.5 62.5t-62.5 92.5t-23 113t23 112.5t63 92.5t92.5 63t112.5 23q59 0 112 -23t92.5 -63t63 -92.5t23.5 -112.5zM464 457q0 37 -13 64.5t-34 45.5t-47.5 27t-54.5 9
q-26 0 -52.5 -9t-47.5 -27t-34.5 -45.5t-13.5 -64.5q0 -38 13 -65.5t34 -46t48 -27.5t54 -9t53.5 9t47.5 27.5t34 46t13 65.5zM407 755l-93 76l-92 -76l-41 50l133 108l134 -108z" />
    <glyph glyph-name="otilde" unicode="&#xf5;" horiz-adv-x="630" 
d="M40 0v142h551v-142h-551zM606 457q0 -60 -23 -113t-62.5 -92.5t-92.5 -62.5t-113 -23t-113 23t-92.5 62.5t-62.5 92.5t-23 113t23 112.5t63 92.5t92.5 63t112.5 23q59 0 112 -23t92.5 -63t63 -92.5t23.5 -112.5zM464 457q0 37 -13 64.5t-34 45.5t-47.5 27t-54.5 9
q-26 0 -52.5 -9t-47.5 -27t-34.5 -45.5t-13.5 -64.5q0 -38 13 -65.5t34 -46t48 -27.5t54 -9t53.5 9t47.5 27.5t34 46t13 65.5zM399 781q-11 22 -31 22q-4 0 -9 -1t-9 -3q-25 -10 -42 -19t-42 -9q-28 0 -53.5 14.5t-39.5 41.5l57 29q6 -12 14 -16.5t17 -4.5q11 0 18 4
q28 11 44 19.5t40 8.5q29 0 55 -14.5t39 -42.5z" />
    <glyph glyph-name="odieresis" unicode="&#xf6;" horiz-adv-x="630" 
d="M40 0v142h551v-142h-551zM606 457q0 -60 -23 -113t-62.5 -92.5t-92.5 -62.5t-113 -23t-113 23t-92.5 62.5t-62.5 92.5t-23 113t23 112.5t63 92.5t92.5 63t112.5 23q59 0 112 -23t92.5 -63t63 -92.5t23.5 -112.5zM464 457q0 37 -13 64.5t-34 45.5t-47.5 27t-54.5 9
q-26 0 -52.5 -9t-47.5 -27t-34.5 -45.5t-13.5 -64.5q0 -38 13 -65.5t34 -46t48 -27.5t54 -9t53.5 9t47.5 27.5t34 46t13 65.5zM252 887q20 0 34.5 -14.5t14.5 -35.5q0 -20 -14.5 -34t-34.5 -14q-21 0 -35 14.5t-14 34.5t15 34.5t34 14.5zM378 887q20 0 34.5 -14.5
t14.5 -35.5q0 -20 -14.5 -34t-34.5 -14q-21 0 -34.5 14.5t-13.5 34.5t14.5 34.5t33.5 14.5z" />
    <glyph glyph-name="scaron" unicode="&#x161;" horiz-adv-x="615" 
d="M446 745l-133 108l41 50l92 -76l93 76l41 -50zM521 583q-38 0 -69.5 -24t-40.5 -62l-73 -303q-10 -42 -33.5 -77.5t-56.5 -61.5t-73 -40.5t-83 -14.5h-68v142h68q28 0 47.5 9.5t33 27t22 42t15.5 53.5l63 257q10 43 34 78.5t57 61t73 40t84 14.5h70v-142h-70z" />
    <glyph glyph-name="ugrave" unicode="&#xf9;" horiz-adv-x="532" 
d="M508 224q0 -50 -19.5 -94t-52.5 -77t-77 -52t-93 -19q-50 0 -94 19t-77 52t-52 77t-19 94v502h143v-502q0 -42 28.5 -71t70.5 -29t71 29t29 71v502h142v-502v0zM355 765l-197 65l29 71l186 -94z" />
    <glyph glyph-name="uacute" unicode="&#xfa;" horiz-adv-x="532" 
d="M508 224q0 -50 -19.5 -94t-52.5 -77t-77 -52t-93 -19q-50 0 -94 19t-77 52t-52 77t-19 94v502h143v-502q0 -42 28.5 -71t70.5 -29t71 29t29 71v502h142v-502v0zM176 765l-18 42l186 94l29 -71z" />
    <glyph glyph-name="ucircumflex" unicode="&#xfb;" horiz-adv-x="532" 
d="M508 224q0 -50 -19.5 -94t-52.5 -77t-77 -52t-93 -19q-50 0 -94 19t-77 52t-52 77t-19 94v502h143v-502q0 -42 28.5 -71t70.5 -29t71 29t29 71v502h142v-502v0zM358 747l-93 76l-92 -76l-41 50l133 108l134 -108z" />
    <glyph glyph-name="udieresis" unicode="&#xfc;" horiz-adv-x="532" 
d="M508 224q0 -50 -19.5 -94t-52.5 -77t-77 -52t-93 -19q-50 0 -94 19t-77 52t-52 77t-19 94v502h143v-502q0 -42 28.5 -71t70.5 -29t71 29t29 71v502h142v-502v0zM203 864q20 0 34.5 -14.5t14.5 -35.5q0 -20 -14.5 -34t-34.5 -14q-21 0 -35 14.5t-14 34.5t15 34.5t34 14.5z
M329 864q20 0 34.5 -14.5t14.5 -35.5q0 -20 -14.5 -34t-34.5 -14q-21 0 -34.5 14.5t-13.5 34.5t14.5 34.5t33.5 14.5z" />
    <glyph glyph-name="ydieresis" unicode="&#xff;" horiz-adv-x="580" 
d="M361 228v-228h-143v228l-194 497h153l113 -288l113 288h153zM227 847q20 0 34.5 -14.5t14.5 -35.5q0 -20 -14.5 -34t-34.5 -14q-21 0 -35 14.5t-14 34.5t15 34.5t34 14.5zM353 847q20 0 34.5 -14.5t14.5 -35.5q0 -20 -14.5 -34t-34.5 -14q-21 0 -34.5 14.5t-13.5 34.5
t14.5 34.5t33.5 14.5z" />
    <glyph glyph-name="zcaron" unicode="&#x17e;" horiz-adv-x="538" 
d="M268 745l-133 108l41 50l92 -76l93 76l41 -50zM247 143h239v-143h-462l268 583h-236v142h458z" />
    <glyph glyph-name="space" unicode=" " horiz-adv-x="311" 
 />
  </font>
</defs>
</svg>
